<svg width="26" height="24" viewBox="0 0 26 24" fill="none" xmlns="http://www.w3.org/2000/svg">
<path fill-rule="evenodd" clip-rule="evenodd" d="M16.0983 0.0687293C14.7414 0.271569 13.5 0.785786 12.4026 1.59952C12.1477 1.78852 10.0932 3.80258 6.65721 7.23186C1.94334 11.9366 1.27098 12.6262 0.990902 13.0442C0.527977 13.7349 0.270621 14.3451 0.0913938 15.1766C-0.0320758 15.7498 -0.0301412 16.8723 0.0953623 17.4562C0.566918 19.6496 2.17505 21.3376 4.33495 21.9064C4.97809 22.0758 6.08332 22.1178 6.76803 21.999C7.64432 21.8469 8.53441 21.4615 9.24839 20.925C9.46879 20.7594 11.6295 18.6317 14.4653 15.7876C19.7912 10.4463 19.4947 10.777 19.7756 9.86644C19.9237 9.38625 19.936 8.52067 19.8015 8.03736C19.5989 7.3087 19.1886 6.68415 18.6023 6.2118C17.3792 5.22643 15.6091 5.19537 14.353 6.13725C14.2079 6.24603 12.691 7.73789 10.9821 9.45252C8.48123 11.9618 7.86314 12.6074 7.81403 12.7617C7.50116 13.7443 8.43877 14.6387 9.35182 14.2286C9.52286 14.1517 10.2996 13.4047 12.6754 11.032C14.9107 8.79981 15.8296 7.91349 15.9687 7.85585C16.7169 7.54571 17.5829 8.10477 17.5848 8.89912C17.5861 9.42063 17.7229 9.27042 12.5938 14.3827C7.4966 19.4634 7.60494 19.3647 6.87151 19.5931C5.90042 19.8954 4.98539 19.8096 4.07993 19.3314C3.69682 19.1291 2.97857 18.4294 2.76606 18.0514C2.49526 17.5698 2.34803 17.0438 2.32169 16.4641C2.29098 15.7885 2.38399 15.3431 2.68436 14.7278C2.83665 14.4158 3.03957 14.1312 3.28486 13.8854L8.15457 9.00721C11.0646 6.0921 13.5602 3.63233 13.7668 3.47558C14.1807 3.16152 14.7565 2.84712 15.2748 2.65227C16.2904 2.27045 17.6383 2.21062 18.7397 2.49849C20.5085 2.96082 22.001 4.30088 22.664 6.02196C22.9047 6.6469 22.9945 7.10749 23.0266 7.88219C23.079 9.14541 22.7757 10.2299 22.0623 11.3298C21.8914 11.5934 20.5785 12.9381 16.6141 16.9105C12.5668 20.9658 11.3683 22.1942 11.2902 22.3672C11.1788 22.6141 11.16 22.9369 11.2404 23.2264C11.3077 23.4685 11.6018 23.7954 11.8569 23.9116C12.1234 24.033 12.5409 24.0289 12.8242 23.9021C12.9987 23.8241 14.1768 22.6717 18.2112 18.6326C21.4663 15.3737 23.4878 13.3126 23.6804 13.0564C24.5056 11.9583 25.0348 10.7408 25.2605 9.42058C25.3611 8.83165 25.373 7.41515 25.2817 6.89007C24.9627 5.05544 24.2314 3.61175 22.9945 2.37492C21.4328 0.813268 19.407 -0.0172877 17.2023 0.000272829C16.827 0.0032492 16.3302 0.0340546 16.0983 0.0687293Z" fill="#7EB0C1"/>
</svg>
