<svg xmlns="http://www.w3.org/2000/svg" version="1.1" xmlns:xlink="http://www.w3.org/1999/xlink" width="512"
    height="512" x="0" y="0" viewBox="0 0 682.667 682.667" style="enable-background:new 0 0 512 512"
    xml:space="preserve" class="">
    <g>
        <defs>
            <clipPath id="a" clipPathUnits="userSpaceOnUse">
                <path d="M0 512h512V0H0Z" fill="#000000" opacity="1" data-original="#000000"></path>
            </clipPath>
        </defs>
        <g clip-path="url(#a)" transform="matrix(1.33333 0 0 -1.33333 0 682.667)">
            <path d="M0 0h-482v-272.5c0-32.516 26.359-58.875 58.875-58.875h364.25C-26.359-331.375 0-305.016 0-272.5z"
                style="stroke-width:30;stroke-linecap:round;stroke-linejoin:round;stroke-miterlimit:10;stroke-dasharray:none;stroke-opacity:1"
                transform="translate(497 376.5)" fill="none" stroke-width="30" stroke-linecap="round"
                stroke-linejoin="round" stroke-miterlimit="10" stroke-dasharray="none" stroke-opacity=""
                data-original="#000000" class=""></path>
            <path d="M0 0h-180.75v44.808c0 25.166 20.401 45.567 45.567 45.567h89.616C-20.401 90.375 0 69.974 0 44.808Z"
                style="stroke-width:30;stroke-linecap:round;stroke-linejoin:round;stroke-miterlimit:10;stroke-dasharray:none;stroke-opacity:1"
                transform="translate(346.375 376.5)" fill="none" stroke-width="30" stroke-linecap="round"
                stroke-linejoin="round" stroke-miterlimit="10" stroke-dasharray="none" stroke-opacity=""
                data-original="#000000" class=""></path>
            <path d="M0 0c0-87.23 82.38-160.02 191.97-177.01"
                style="stroke-width:30;stroke-linecap:round;stroke-linejoin:round;stroke-miterlimit:10;stroke-dasharray:none;stroke-opacity:1"
                transform="translate(15 376.5)" fill="none" stroke-width="30" stroke-linecap="round"
                stroke-linejoin="round" stroke-miterlimit="10" stroke-dasharray="none" stroke-opacity=""
                data-original="#000000" class=""></path>
            <path d="M0 0c109.59 16.99 191.97 89.78 191.97 177.01"
                style="stroke-width:30;stroke-linecap:round;stroke-linejoin:round;stroke-miterlimit:10;stroke-dasharray:none;stroke-opacity:1"
                transform="translate(305.03 199.49)" fill="none" stroke-width="30" stroke-linecap="round"
                stroke-linejoin="round" stroke-miterlimit="10" stroke-dasharray="none" stroke-opacity=""
                data-original="#000000" class=""></path>
            <path d="M0 0v-49.03c0-27.08-21.95-49.03-49.03-49.03-27.08 0-49.03 21.95-49.03 49.03V0Z"
                style="stroke-width:30;stroke-linecap:round;stroke-linejoin:round;stroke-miterlimit:10;stroke-dasharray:none;stroke-opacity:1"
                transform="translate(305.03 244.78)" fill="none" stroke-width="30" stroke-linecap="round"
                stroke-linejoin="round" stroke-miterlimit="10" stroke-dasharray="none" stroke-opacity=""
                data-original="#000000" class=""></path>
        </g>
    </g>
</svg>