<svg width="20" height="25" viewBox="0 0 20 25" fill="none" xmlns="http://www.w3.org/2000/svg">
    <path fill-rule="evenodd" clip-rule="evenodd"
        d="M9.26791 0.885223C8.4172 0.746872 8.09159 0.811481 7.90147 1.15629C7.71187 1.50013 7.81976 1.85587 8.36473 2.68469C9.38896 4.24203 9.98034 5.84536 10.2435 7.7787C10.94 12.8917 8.3229 17.8849 3.71137 20.2419C3.09993 20.5544 2.24092 20.9181 1.80245 21.0501C0.619905 21.4062 0.480357 21.4823 0.365703 21.8342C0.176309 22.4153 0.46573 22.7051 2.03078 23.5015C3.07584 24.0332 4.87702 24.5715 5.99376 24.6856C9.44535 25.0384 12.799 23.9735 15.3508 21.7147C18.746 18.7092 20.1649 13.8624 18.9292 9.49126C17.6565 4.98889 13.8941 1.63751 9.26791 0.885223ZM17.6783 11.1101C17.223 8.15461 15.474 5.50915 12.8948 3.87476C12.4968 3.62251 11.7408 3.24754 11.2148 3.04141L10.2584 2.66657L10.6485 3.55462C12.063 6.77467 12.299 9.84672 11.3845 13.1323C10.3234 16.9441 7.80802 19.9485 4.14946 21.7738L3.03879 22.3279L3.9633 22.6287C6.68695 23.5151 9.34769 23.3626 11.835 22.1777C14.4828 20.9164 16.3603 18.7765 17.2673 15.986C17.8185 14.2907 17.9422 12.8229 17.6783 11.1101Z"
        fill="white" />
</svg>