<svg viewBox="0 0 24 24" fill="none" xmlns="http://www.w3.org/2000/svg">
  <path fill-rule="evenodd" clip-rule="evenodd"
    d="M11.1933 0.0250365C5.85664 0.383438 1.43428 4.17541 0.269134 9.39192C-0.146878 11.2544 -0.077784 13.4184 0.456827 15.2721C2.19702 21.3058 8.22162 24.9937 14.3295 23.7641C15.5225 23.524 16.7317 23.0864 17.6829 22.5504C18.2855 22.2109 18.4145 22.1045 18.5522 21.8327C18.8821 21.1816 18.5296 20.3764 17.8323 20.1883C17.489 20.0957 17.2447 20.1614 16.4985 20.5476C15.4446 21.0929 14.6186 21.3704 13.4348 21.5768C12.7727 21.6922 11.1711 21.6918 10.4937 21.5762C8.33341 21.2073 6.49465 20.2488 5.03007 18.7282C2.67218 16.2802 1.78197 12.8325 2.65665 9.53639C3.76727 5.35122 7.61632 2.39291 11.9551 2.38973C14.0739 2.38818 16.1404 3.09234 17.8759 4.40716C18.3002 4.7286 19.1676 5.58837 19.5153 6.03222C21.4081 8.44786 22.0643 11.5362 21.3055 14.4568C21.1149 15.1902 21.0039 15.44 20.7405 15.7282C19.8568 16.6951 18.2375 16.3301 17.8471 15.0761C17.7602 14.7966 17.7553 14.5817 17.7553 11.0153C17.7553 8.19981 17.7405 7.19958 17.6966 7.05107C17.5741 6.63641 17.0434 6.24935 16.5973 6.24935C16.0412 6.24935 15.4393 6.80972 15.4393 7.32754C15.4393 7.38569 15.3527 7.3494 15.0972 7.1841C13.3954 6.08317 11.2137 5.95526 9.40399 6.8503C8.78257 7.15761 8.42195 7.42009 7.88203 7.95793C7.09889 8.73814 6.6201 9.57127 6.33099 10.6568C6.21022 11.1102 6.20071 11.2151 6.20327 12.0635C6.20578 12.8917 6.21803 13.0245 6.33002 13.4386C6.61832 14.5043 7.15857 15.432 7.91904 16.167C8.43546 16.6661 8.8137 16.9365 9.40399 17.2284C10.1733 17.6089 11.1026 17.8288 11.9412 17.8288C13.1252 17.8288 14.4538 17.3918 15.3674 16.702C15.5478 16.5658 15.7324 16.4265 15.7774 16.3927C15.8499 16.3384 15.8807 16.3676 16.0416 16.6427C16.3065 17.0956 16.7853 17.5948 17.2541 17.9067C19.0705 19.1153 21.5034 18.6851 22.7526 16.9344C23.2442 16.2456 23.6324 15.0349 23.8427 13.5351C23.94 12.8415 23.9243 11.0477 23.8147 10.3265C23.4048 7.62809 22.2397 5.31812 20.3504 3.45813C19.3892 2.51189 18.448 1.84238 17.23 1.23843C15.3724 0.317432 13.2354 -0.112139 11.1933 0.0250365ZM12.8579 8.68255C13.0171 8.72434 13.332 8.85008 13.5575 8.96192C14.1387 9.25012 14.7542 9.8656 15.043 10.4471C15.3428 11.0511 15.4149 11.3732 15.41 12.0876C15.4065 12.6017 15.3871 12.7478 15.2791 13.0767C15.0975 13.6297 14.8438 14.0345 14.4021 14.4761C13.9604 14.9178 13.5556 15.1715 13.0027 15.3531C12.6737 15.4612 12.5276 15.4806 12.0135 15.4841C11.2992 15.489 10.977 15.4169 10.373 15.117C9.79177 14.8285 9.1762 14.2129 8.88762 13.6316C8.58928 13.0306 8.51643 12.7058 8.51971 11.9911C8.52207 11.4725 8.54041 11.3339 8.65042 11.002C9.04853 9.80065 10.0183 8.92245 11.2657 8.63367C11.6252 8.55044 12.4513 8.57577 12.8579 8.68255Z" />
</svg>