<svg xmlns="http://www.w3.org/2000/svg" version="1.1" xmlns:xlink="http://www.w3.org/1999/xlink" width="512"
    height="512" x="0" y="0" viewBox="0 0 512 512" style="enable-background:new 0 0 512 512" xml:space="preserve"
    class="">
    <g>
        <path
            d="M512 148.623c0-43.269-35.202-78.471-78.472-78.471H78.471C35.202 70.152 0 105.354 0 148.623V393.18h50.665c6.508 27.853 31.528 48.667 61.335 48.667s54.827-20.815 61.335-48.667h165.329c6.508 27.853 31.529 48.667 61.336 48.667s54.827-20.815 61.336-48.667H512zm-79 230.225c0 18.196-14.804 33-33 33s-33-14.804-33-33 14.804-33 33-33 33 14.803 33 33zm-288 0c0 18.196-14.804 33-33 33s-33-14.804-33-33 14.804-33 33-33 33 14.803 33 33zm288.528-278.696c22.785 0 41.937 15.807 47.095 37.027H31.377c5.158-21.221 24.31-37.027 47.094-37.027zM482 167.18v88h-32.333v-88zm-62.333 59H239.833v-59h179.834zM30 167.18h179.833v59H30zm431.027 196.001c-6.983-27.184-31.695-47.333-61.027-47.333s-54.044 20.149-61.027 47.333H173.027c-6.983-27.184-31.695-47.333-61.027-47.333s-54.044 20.149-61.027 47.333H30V256.18h389.667v29H482v78.001z"
            opacity="1" data-original="#000000" class=""></path>
        <path
            d="M286.285 298.274a19.145 19.145 0 0 1-21.26-1.228c-15.914-11.988-37.3-13.223-54.486-3.145l-19.665 11.531 15.175 25.879 19.665-11.531a19.143 19.143 0 0 1 21.26 1.227c15.912 11.989 37.299 13.224 54.486 3.146l19.665-11.531-15.175-25.879z"
            opacity="1" data-original="#000000" class=""></path>
    </g>
</svg>