<svg width="32" height="32" viewBox="0 0 32 32" fill="none" xmlns="http://www.w3.org/2000/svg">
<path fill-rule="evenodd" clip-rule="evenodd" d="M16 32C24.8366 32 32 24.8366 32 16C32 7.16344 24.8366 0 16 0C7.16344 0 0 7.16344 0 16C0 24.8366 7.16344 32 16 32ZM16 5C13.012 5 12.638 5.01218 11.465 5.067H11.464C10.294 5.12181 9.494 5.31062 8.794 5.58572C8.06047 5.86634 7.39604 6.30594 6.847 6.87389C6.28712 7.4315 5.85372 8.10631 5.577 8.85132C5.306 9.5619 5.119 10.374 5.066 11.5637C5.013 12.7534 5 13.133 5 16.1662C5 19.1983 5.012 19.578 5.066 20.7707C5.12 21.9584 5.306 22.7705 5.577 23.4811C5.85331 24.226 6.28638 24.9009 6.846 25.4585C7.39582 26.0262 8.06092 26.4655 8.795 26.7457C9.495 27.0218 10.295 27.2116 11.465 27.2654C12.638 27.3192 13.012 27.3324 16 27.3324C18.988 27.3324 19.362 27.3202 20.536 27.2654C21.706 27.2106 22.506 27.0218 23.206 26.7457C23.939 26.4655 24.604 26.027 25.154 25.4585C25.7133 24.9004 26.146 24.2252 26.422 23.4801C26.694 22.7695 26.881 21.9574 26.934 20.7697C26.987 19.579 27 19.1993 27 16.1662C27 13.1341 26.988 12.7544 26.934 11.5617C26.88 10.374 26.694 9.5619 26.422 8.85132C26.146 8.10623 25.714 7.4322 25.154 6.87491C24.604 6.30644 23.939 5.8669 23.206 5.58572C22.506 5.31062 21.706 5.1208 20.534 5.067C19.362 5.0132 18.988 5 16 5ZM16 7.01195C18.937 7.01195 19.285 7.02311 20.445 7.07691C21.518 7.12665 22.1 7.30836 22.488 7.46164C22.9657 7.64051 23.3979 7.92562 23.753 8.29606C24.138 8.68687 24.375 9.05942 24.575 9.58017C24.726 9.97403 24.905 10.5648 24.954 11.654C25.007 12.8316 25.018 13.1848 25.018 16.1662C25.018 19.1476 25.007 19.5008 24.954 20.6784C24.905 21.7676 24.726 22.3584 24.575 22.7522C24.399 23.2364 24.118 23.676 23.753 24.0363C23.368 24.4271 23.001 24.6677 22.488 24.8708C22.1 25.024 21.518 25.2057 20.445 25.2555C19.285 25.3093 18.938 25.3204 16 25.3204C13.062 25.3204 12.715 25.3093 11.555 25.2555C10.482 25.2057 9.9 25.024 9.512 24.8708C9.035 24.6921 8.602 24.4068 8.247 24.0363C7.882 23.676 7.601 23.2364 7.425 22.7522C7.274 22.3584 7.095 21.7676 7.046 20.6784C6.993 19.5008 6.982 19.1476 6.982 16.1662C6.982 13.1848 6.993 12.8316 7.046 11.654C7.095 10.5648 7.274 9.97403 7.425 9.58017C7.60118 9.09523 7.88205 8.65647 8.247 8.29606C8.632 7.90524 8.999 7.66466 9.512 7.46164C9.9 7.30836 10.482 7.12665 11.555 7.07691C12.715 7.02311 13.063 7.01195 16 7.01195ZM17.0669 19.735C16.2534 19.9847 15.3797 19.94 14.595 19.6084C14.0938 19.3975 13.645 19.0763 13.2807 18.6682C12.9165 18.26 12.6459 17.7749 12.4885 17.2478C12.3312 16.7207 12.2908 16.1648 12.3705 15.62C12.4502 15.0752 12.6479 14.5552 12.9493 14.0973C13.2507 13.6393 13.6485 13.2549 14.1138 12.9718C14.5792 12.6886 15.1006 12.5137 15.6405 12.4596C16.1804 12.4056 16.7255 12.4737 17.2363 12.6591C17.7472 12.8446 18.2112 13.1427 18.595 13.532C19.197 14.141 19.572 14.9433 19.656 15.8019C19.7401 16.6604 19.5278 17.5219 19.0556 18.2393C18.5834 18.9566 17.8805 19.4853 17.0669 19.735ZM13.8363 10.8636C13.1503 11.1521 12.527 11.5748 12.002 12.1078C10.9417 13.1841 10.346 14.644 10.346 16.1662C10.346 17.6884 10.9417 19.1482 12.002 20.2246C13.0623 21.301 14.5005 21.9056 16 21.9056C17.4995 21.9056 18.9377 21.301 19.998 20.2246C20.523 19.6916 20.9395 19.0589 21.2236 18.3626C21.5078 17.6662 21.654 16.9199 21.654 16.1662C21.654 15.4125 21.5078 14.6661 21.2236 13.9698C20.9395 13.2735 20.523 12.6407 19.998 12.1078C19.473 11.5748 18.8497 11.1521 18.1637 10.8636C17.4777 10.5752 16.7425 10.4267 16 10.4267C15.2575 10.4267 14.5223 10.5752 13.8363 10.8636ZM23.2143 10.8409C23.1423 11.0071 23.0381 11.1569 22.908 11.2815C22.655 11.5238 22.3189 11.6564 21.9711 11.6513C21.6233 11.6461 21.2911 11.5036 21.0452 11.2539C20.7992 11.0042 20.6588 10.6671 20.6537 10.314C20.6486 9.96096 20.7793 9.61979 21.018 9.36294C21.1407 9.23087 21.2883 9.12514 21.452 9.052C21.6157 8.97887 21.7922 8.93983 21.9711 8.93718C22.1499 8.93454 22.3275 8.96834 22.4932 9.0366C22.6589 9.10485 22.8095 9.20617 22.936 9.33455C23.0624 9.46294 23.1622 9.61577 23.2295 9.78401C23.2967 9.95226 23.33 10.1325 23.3274 10.314C23.3248 10.4956 23.2863 10.6747 23.2143 10.8409Z" fill="#7EB0C1"/>
</svg>
