<svg width="24" height="24" viewBox="0 0 24 24" fill="none" xmlns="http://www.w3.org/2000/svg">
<path fill-rule="evenodd" clip-rule="evenodd" d="M11.6794 0.0815179C11.2638 0.291723 11.2096 0.546434 11.2081 2.29676L11.207 3.53817C11.2068 3.78719 11.3057 4.02607 11.482 4.20216C11.8217 4.54156 12.1713 4.55699 12.4823 4.2462C12.711 4.01774 12.7135 3.99704 12.7135 2.27795C12.7135 1.32242 12.6871 0.472101 12.655 0.388357C12.5022 -0.00950008 12.0027 -0.0818688 11.6794 0.0815179ZM3.83881 3.21088C3.55648 3.36633 3.43236 3.69236 3.52097 4.0454C3.55233 4.17017 4.11239 4.82647 4.76548 5.50385C5.79989 6.57661 5.99116 6.73507 6.2491 6.73243C6.41183 6.73083 6.6176 6.67447 6.70622 6.60719C6.93996 6.42964 7.07284 6.02043 6.97753 5.77098C6.84578 5.42604 4.59559 3.16713 4.332 3.11528C4.20251 3.08979 3.98054 3.13279 3.83881 3.21088ZM19.4305 3.18454C19.3179 3.24861 18.714 3.84263 18.0885 4.50467C17.1548 5.49294 16.9513 5.75885 16.9513 5.99088C16.9513 6.50134 17.5227 6.8715 18.0178 6.68172C18.3123 6.5688 20.4373 4.21053 20.4923 3.9355C20.5966 3.41478 19.8963 2.91948 19.4305 3.18454ZM10.3934 4.80586C7.27362 5.48381 4.85485 8.29316 4.64522 11.4826C4.4048 15.1384 6.89268 18.4571 10.4361 19.2075C11.2765 19.3854 12.7544 19.3789 13.5896 19.1935C15.0161 18.8768 16.6294 17.907 17.5796 16.7947C20.2943 13.6172 19.8393 8.88369 16.566 6.24888C15.8317 5.65769 14.5051 5.01908 13.5896 4.81584C12.7723 4.63443 11.2049 4.62953 10.3934 4.80586ZM13.9356 6.47998C15.371 6.9926 16.5652 8.05718 17.2236 9.41081C17.6867 10.3633 17.8343 10.9898 17.8343 12.0047C17.8343 13.0196 17.6867 13.6461 17.2236 14.5986C16.5649 15.9528 15.3695 17.0181 13.9356 17.5286C13.0192 17.8549 11.5443 17.9343 10.6352 17.7062C8.47537 17.1645 6.70829 15.3693 6.26162 13.2628C5.98014 11.9352 6.14711 10.6122 6.75142 9.3822C7.44454 7.97146 8.96215 6.74495 10.5475 6.31447C11.3925 6.08497 13.0573 6.16627 13.9356 6.47998ZM0.248148 11.447C0.0566927 11.5974 0 11.7249 0 12.0047C0 12.2844 0.0566927 12.412 0.248148 12.5624C0.47878 12.7437 0.618628 12.7574 2.23004 12.7574C3.94532 12.7574 3.96632 12.755 4.19498 12.5264C4.34076 12.3809 4.42617 12.188 4.42617 12.0047C4.42617 11.8214 4.34076 11.6285 4.19498 11.4829C3.96632 11.2544 3.94532 11.2519 2.23004 11.2519C0.618628 11.2519 0.47878 11.2657 0.248148 11.447ZM19.8132 11.4723C19.63 11.6297 19.5568 11.7817 19.5568 12.0047C19.5568 12.2277 19.63 12.3796 19.8132 12.5371C20.0619 12.7508 20.1213 12.7574 21.7961 12.7574C23.746 12.7574 23.8798 12.7161 23.9813 12.0821C24.0275 11.7939 23.9963 11.6959 23.7944 11.494C23.6392 11.339 23.4288 11.2519 23.2094 11.2519H21.8108C20.1206 11.2519 20.0621 11.2584 19.8132 11.4723ZM4.76266 18.5121C4.10928 19.1932 3.54979 19.8495 3.51937 19.9706C3.38254 20.5152 3.85548 21.0194 4.37975 20.888C4.64513 20.8214 6.84786 18.5743 6.97697 18.2384C7.07293 17.9889 6.94052 17.5801 6.70622 17.4022C6.6176 17.3349 6.41136 17.2785 6.24787 17.2769C5.98814 17.2743 5.80083 17.4301 4.76266 18.5121ZM17.1825 17.5049C16.7326 17.9544 16.8323 18.1749 18.0865 19.5047C18.7108 20.1667 19.3362 20.7641 19.4763 20.8323C19.9801 21.0774 20.6113 20.5761 20.4866 20.03C20.4501 19.8703 19.9579 19.2787 19.2305 18.5205C18.1693 17.4142 17.9993 17.2736 17.724 17.2737C17.5202 17.2738 17.3342 17.3533 17.1825 17.5049ZM11.482 19.8072L11.2067 20.0823L11.2081 21.7126C11.2096 23.4895 11.2627 23.7249 11.7109 23.9395C12.0193 24.0873 12.4695 23.952 12.6229 23.6656C12.6727 23.5726 12.7135 22.7084 12.7135 21.7453C12.7135 20.0115 12.7112 19.9918 12.4823 19.7632C12.1713 19.4524 11.8217 19.4678 11.482 19.8072Z" fill="#2D2D2D"/>
</svg>
