<svg viewBox="0 0 10 12" fill="none" xmlns="http://www.w3.org/2000/svg">
  <path fill-rule="evenodd" clip-rule="evenodd"
    d="M4.01828 0.156255C2.21115 0.373114 0.719651 1.62606 0.269484 3.30541C-0.126331 4.78213 0.366003 6.46232 1.8608 8.73592C2.62864 9.90379 4.08033 11.7013 4.35652 11.8261C4.486 11.8846 4.66204 11.8697 4.77919 11.7903C4.94131 11.6803 5.83314 10.6273 6.40073 9.87562C8.14611 7.56427 9.00343 5.62082 8.92611 4.15089C8.86994 3.08352 8.43215 2.12512 7.6639 1.38774C7.01239 0.762448 6.25212 0.372249 5.36089 0.205799C5.0285 0.143705 4.33581 0.11816 4.01828 0.156255ZM5.27724 1.04318C5.61472 1.11618 5.83036 1.19148 6.15744 1.35048C7.55514 2.03009 8.29448 3.5252 7.9739 5.02377C7.6984 6.31146 6.79157 7.98803 5.44176 9.70532C5.13855 10.091 4.59126 10.7183 4.54547 10.7326C4.50322 10.7458 4.07706 10.2661 3.63273 9.70532C2.28718 8.00705 1.35147 6.26846 1.07817 4.95895C1.01031 4.63381 1.01119 3.97013 1.07987 3.66619C1.31076 2.64456 1.97946 1.80375 2.9289 1.34129C3.2318 1.19375 3.62464 1.06692 3.91568 1.02272C4.02158 1.00663 4.13917 0.988398 4.17699 0.982215C4.34142 0.955307 5.05323 0.994739 5.27724 1.04318ZM4.16324 2.68583C2.99612 2.93237 2.41899 4.19915 3.02665 5.18055C3.14166 5.36624 3.43391 5.64385 3.63402 5.75751C4.39756 6.19107 5.38259 6.01275 5.92364 5.343C6.36627 4.79507 6.41278 4.05924 6.04249 3.46203C5.84293 3.14019 5.43664 2.8343 5.05719 2.72025C4.81654 2.64789 4.4158 2.63246 4.16324 2.68583ZM4.90913 3.56285C5.0798 3.64158 5.26547 3.81891 5.34106 3.97545C5.42462 4.14848 5.42506 4.49301 5.34196 4.66499C5.25807 4.83859 5.10354 4.98971 4.92409 5.07366C4.79068 5.13607 4.73487 5.14647 4.53457 5.14623C4.25318 5.14592 4.1024 5.08995 3.92338 4.91934C3.73568 4.74044 3.67093 4.58702 3.67093 4.32119C3.67093 4.13894 3.68303 4.0747 3.73763 3.96749C3.85184 3.74324 4.075 3.56872 4.32828 3.5056C4.47709 3.46853 4.7664 3.49706 4.90913 3.56285Z" />
  <path fill-rule="evenodd" clip-rule="evenodd"
    d="M4.68911 0.00520589C4.94597 0.0146822 5.21015 0.0369021 5.38629 0.0698065C6.30389 0.241183 7.08866 0.6439 7.7597 1.28793C8.55342 2.04975 9.00625 3.04129 9.06426 4.14362C9.14431 5.66548 8.25991 7.64314 6.51114 9.95899C6.22546 10.3373 5.85893 10.7905 5.54348 11.163C5.38575 11.3492 5.24008 11.5161 5.12318 11.6438C5.06479 11.7076 5.01283 11.7624 4.96969 11.8053C4.92905 11.8457 4.88911 11.8828 4.85685 11.9047L4.85683 11.9048C4.69968 12.0113 4.47265 12.0304 4.29956 11.9522L4.29954 11.9522C4.24136 11.9259 4.17315 11.8684 4.10688 11.8063C4.03562 11.7396 3.9506 11.6517 3.85596 11.5482C3.66641 11.3411 3.43312 11.0658 3.1854 10.7591C2.69014 10.1458 2.13234 9.40075 1.7452 8.81192C0.24452 6.52937 -0.275803 4.80543 0.135857 3.26959C0.601542 1.53235 2.142 0.242075 4.0018 0.0188961C4.17144 -0.00145676 4.43259 -0.00425816 4.68911 0.00520589ZM4.67891 0.281704C4.42661 0.272396 4.18265 0.27587 4.03476 0.293612C2.2803 0.504151 0.837758 1.71977 0.403109 3.34123C0.0231399 4.75883 0.487486 6.39527 1.9764 8.65992C2.3571 9.23895 2.90906 9.97654 3.40066 10.5852C3.64637 10.8895 3.87577 11.16 4.0601 11.3615C4.15239 11.4623 4.23209 11.5445 4.29609 11.6045C4.32811 11.6345 4.35497 11.6578 4.37659 11.6747C4.38735 11.6831 4.39608 11.6893 4.40288 11.6938C4.40624 11.6959 4.40886 11.6975 4.41078 11.6986C4.41273 11.6997 4.41361 11.7001 4.41351 11.7001C4.49935 11.7388 4.62437 11.7281 4.70152 11.6758C4.70979 11.6702 4.73319 11.6503 4.77457 11.6091C4.81345 11.5705 4.8622 11.5191 4.91909 11.457C5.03273 11.3328 5.1759 11.1689 5.33234 10.9841C5.64524 10.6147 6.00842 10.1656 6.29033 9.79225C8.03232 7.4854 8.86254 5.57616 8.78796 4.15816C8.73363 3.12575 8.31088 2.20048 7.56811 1.48755C6.93612 0.880995 6.20034 0.503314 5.33549 0.34179C5.17924 0.312601 4.93088 0.291 4.67891 0.281704ZM4.38578 1.11192C4.29158 1.11124 4.22732 1.11416 4.19933 1.11874L4.19931 1.11874C4.16061 1.12507 4.04229 1.14342 3.93646 1.15949C3.66107 1.20132 3.28159 1.32338 2.98948 1.46566C2.07743 1.90991 1.43635 2.71641 1.21481 3.69668C1.18387 3.83362 1.16648 4.0634 1.16616 4.3048C1.16584 4.54568 1.18253 4.78186 1.21359 4.93069C1.48059 6.21001 2.40162 7.92872 3.74116 9.61941C3.96209 9.89825 4.17802 10.1563 4.3433 10.3423C4.42239 10.4313 4.48856 10.5023 4.53748 10.5509C4.54489 10.5431 4.55279 10.5348 4.56113 10.5258C4.6221 10.4606 4.70312 10.3701 4.79284 10.2673C4.97231 10.0616 5.1833 9.81025 5.33299 9.61983C6.67731 7.90953 7.56952 6.25259 7.83861 4.99483C8.14562 3.55976 7.43858 2.12725 6.09695 1.4749C5.77929 1.32047 5.5741 1.24893 5.24799 1.1784C5.14796 1.15677 4.92411 1.13515 4.69712 1.12257C4.58547 1.11639 4.47637 1.11257 4.38578 1.11192ZM4.50427 10.6005C4.5043 10.6005 4.50433 10.6005 4.50436 10.6005ZM4.71243 0.846309C4.93845 0.858833 5.1825 0.881152 5.30648 0.907964C5.65533 0.983417 5.88144 1.06248 6.21793 1.22606C7.6717 1.93293 8.44335 3.49065 8.10918 5.05271C7.82727 6.37032 6.90583 8.06653 5.55052 9.79081C5.39701 9.98611 5.18276 10.2413 5.00133 10.4492C4.9106 10.5532 4.82726 10.6463 4.76325 10.7148C4.73142 10.7488 4.70325 10.778 4.68083 10.7996C4.66978 10.8103 4.65855 10.8207 4.64805 10.8294C4.64287 10.8337 4.63623 10.839 4.62876 10.844C4.62378 10.8474 4.60815 10.8579 4.58666 10.8646C4.55042 10.8759 4.51967 10.87 4.50541 10.8662C4.48941 10.862 4.47666 10.856 4.46862 10.8518C4.45244 10.8432 4.43802 10.8327 4.42714 10.8242C4.40442 10.8065 4.37822 10.7823 4.35059 10.7552C4.29445 10.7001 4.22092 10.6211 4.13646 10.5261C3.96701 10.3354 3.7477 10.0732 3.52429 9.79123C2.17273 8.08538 1.22234 6.32691 0.942741 4.98722C0.905944 4.8109 0.889145 4.55268 0.889473 4.30444C0.8898 4.05673 0.907191 3.8027 0.944931 3.63569C1.18516 2.57272 1.8815 1.69758 2.86831 1.21691C3.18199 1.06413 3.58821 0.932523 3.89491 0.885945C4.00087 0.869848 4.11773 0.851723 4.15467 0.845683C4.2089 0.836812 4.29526 0.834573 4.38777 0.835236C4.48389 0.835926 4.59758 0.839946 4.71243 0.846309ZM4.13464 2.55047C4.40925 2.49244 4.83354 2.50854 5.09703 2.58777C5.50716 2.71105 5.94185 3.0372 6.16007 3.38913C6.56145 4.03649 6.51071 4.83641 6.03125 5.42993C5.44638 6.15394 4.38639 6.34382 3.56571 5.87781L3.56569 5.8778C3.45208 5.81327 3.3198 5.70716 3.20314 5.59634C3.08678 5.48581 2.97545 5.36062 2.90904 5.2534L2.90903 5.25338C2.24698 4.18415 2.88114 2.81527 4.13464 2.55047ZM5.01735 2.85274C4.79953 2.78724 4.42235 2.77247 4.19184 2.82118C3.11111 3.04948 2.59099 4.21415 3.14428 5.10772C3.19287 5.18618 3.28516 5.29263 3.3937 5.39574C3.50194 5.49856 3.61585 5.58809 3.70234 5.63721C4.40875 6.03832 5.3188 5.87156 5.81602 5.25606C6.22182 4.75373 6.26411 4.08199 5.92492 3.53494C5.74402 3.24319 5.36613 2.95757 5.01737 2.85274L5.01735 2.85274ZM4.60741 3.63333C4.50541 3.62328 4.41395 3.62683 4.36173 3.63984C4.14568 3.69368 3.95618 3.84321 3.86091 4.03027C3.83739 4.07646 3.82641 4.10653 3.81976 4.14183C3.81245 4.18061 3.80928 4.23132 3.80928 4.32119C3.80928 4.44303 3.82417 4.52785 3.85423 4.59907C3.88417 4.67003 3.9336 4.73796 4.01883 4.81919C4.09932 4.89591 4.16619 4.94003 4.23873 4.96695C4.3126 4.99437 4.40245 5.00774 4.53473 5.00789C4.63468 5.00801 4.68728 5.00522 4.72908 4.99743C4.76784 4.99021 4.80284 4.97764 4.86547 4.94835C5.01697 4.87748 5.14776 4.74891 5.2174 4.60479C5.24609 4.54541 5.26582 4.43997 5.26566 4.32079C5.26551 4.2017 5.24553 4.09577 5.21648 4.03562L5.21647 4.0356C5.18794 3.9765 5.13436 3.90608 5.06519 3.84001C4.9964 3.7743 4.91971 3.72009 4.85121 3.68849C4.79982 3.6648 4.70912 3.64336 4.60741 3.63333ZM4.63455 3.35798C4.75038 3.3694 4.8757 3.39511 4.96704 3.43721L4.96707 3.43723C5.06925 3.48436 5.17072 3.55818 5.25631 3.63993C5.34153 3.72134 5.41859 3.81786 5.46564 3.9153C5.52014 4.02817 5.54217 4.18101 5.54235 4.32043C5.54253 4.45977 5.52093 4.61258 5.46653 4.72517C5.36838 4.92826 5.19011 5.10195 4.98271 5.19897V5.19897C4.91193 5.23208 4.85233 5.25592 4.77976 5.26944C4.71023 5.28239 4.63476 5.28469 4.53442 5.28458C4.38531 5.28441 4.25906 5.26964 4.14244 5.22634C4.02448 5.18256 3.92645 5.11338 3.82794 5.01948C3.72547 4.92182 3.64867 4.82359 3.59931 4.70666C3.55007 4.58998 3.53259 4.46517 3.53259 4.32119C3.53259 4.22881 3.53547 4.15628 3.54786 4.09057C3.5609 4.02138 3.58328 3.96572 3.61436 3.9047C3.7475 3.64327 4.00432 3.44376 4.29482 3.37137C4.39141 3.3473 4.51901 3.34659 4.63455 3.35798Z" />
</svg>