<svg width="262" height="47" viewBox="0 0 262 47" fill="none" xmlns="http://www.w3.org/2000/svg">
<path d="M17.335 0.172624C17.3009 -0.0575415 16.9689 -0.0575415 16.9349 0.172624L16.557 2.72322C16.5423 2.8224 16.4571 2.89585 16.3568 2.89585H15.0267C14.8817 2.89585 14.7838 3.0439 14.8406 3.17731L15.272 4.19106C15.3037 4.26568 15.377 4.31413 15.4581 4.31413H18.8118C18.8929 4.31413 18.9661 4.26568 18.9978 4.19106L19.4292 3.17731C19.486 3.0439 19.3881 2.89585 19.2431 2.89585H17.9129C17.8127 2.89585 17.7275 2.8224 17.7128 2.72322L17.335 0.172624Z" fill="#23407C"/>
<path d="M14.3068 7.42901C14.2258 7.53284 14.0688 7.53284 13.9878 7.42901L12.3898 5.38007C12.2862 5.24724 12.3809 5.05341 12.5493 5.05341L15.7453 5.05341C15.9137 5.05341 16.0084 5.24725 15.9048 5.38007L14.3068 7.42901Z" fill="#25407C"/>
<path d="M20.2209 7.42901C20.1399 7.53284 19.9829 7.53284 19.9019 7.42901L18.3039 5.38007C18.2003 5.24724 18.295 5.05341 18.4634 5.05341L21.6594 5.05341C21.8278 5.05341 21.9225 5.24725 21.8189 5.38007L20.2209 7.42901Z" fill="#25407C"/>
<path d="M11.3494 5.60525C11.2684 5.50129 11.1113 5.50129 11.0303 5.60525L9.42248 7.66904C9.31898 7.80186 9.41364 7.99557 9.58206 7.99557H12.7977C12.9661 7.99557 13.0607 7.80186 12.9572 7.66904L11.3494 5.60525Z" fill="#4DA8E3"/>
<path d="M17.2635 5.60525C17.1825 5.50129 17.0253 5.50129 16.9444 5.60525L15.3365 7.66904C15.233 7.80186 15.3277 7.99557 15.4961 7.99557H18.7117C18.8801 7.99557 18.9748 7.80186 18.8713 7.66904L17.2635 5.60525Z" fill="#4DA8E3"/>
<path d="M23.1785 5.60525C23.0975 5.50129 22.9404 5.50129 22.8594 5.60525L21.2516 7.66904C21.1481 7.80186 21.2427 7.99557 21.4111 7.99557H24.6267C24.7952 7.99557 24.8898 7.80186 24.7863 7.66904L23.1785 5.60525Z" fill="#4DA8E3"/>
<path d="M17.2907 14.3461C17.2209 14.5105 16.988 14.5105 16.9183 14.3461L14.7795 9.30282C14.7229 9.16946 14.8208 9.02161 14.9657 9.02161H19.2433C19.3882 9.02161 19.4861 9.16946 19.4295 9.30282L17.2907 14.3461Z" fill="#4DA8E3"/>
<path fill-rule="evenodd" clip-rule="evenodd" d="M9.58673 9.37793C9.44345 9.25603 9.52962 9.02161 9.71779 9.02161H13.5C13.5812 9.02161 13.6545 9.07015 13.6863 9.14485L14.8875 11.9763C14.8966 11.998 14.902 12.0205 14.9032 12.0439C14.944 12.8104 15.022 14.3216 15.022 14.3929L15.0219 14.3943C15.0218 14.3945 15.0218 14.3949 15.0216 14.3952C15.0216 14.3954 15.0213 14.3958 15.0212 14.3959C15.0208 14.3962 15.0207 14.3966 15.0207 14.397C15.3425 17.1919 15.7271 21.0667 15.8139 25.54C15.8161 25.6503 15.906 25.7392 16.0164 25.7392H16.3286C16.4403 25.7392 16.5309 25.6486 16.5309 25.5369V15.6841C16.5309 15.5014 16.7539 15.4124 16.8798 15.5448L16.9575 15.6267C17.0373 15.7106 17.1711 15.7106 17.2508 15.6267L17.3286 15.5448C17.4545 15.4124 17.6775 15.5014 17.6775 15.6841V25.5369C17.6775 25.6486 17.7681 25.7392 17.8798 25.7392H18.2173C18.3276 25.7392 18.4176 25.6503 18.4198 25.54C18.5065 21.0683 18.8909 17.1947 19.2126 14.4001C19.2129 14.3976 19.2116 14.3954 19.2116 14.3929C19.2116 14.3216 19.2897 12.8104 19.3304 12.0439C19.3317 12.0205 19.3371 11.998 19.3462 11.9763L20.5474 9.14485C20.5792 9.07015 20.6525 9.02161 20.7336 9.02161H24.5159C24.704 9.02161 24.7902 9.25603 24.6469 9.37793L20.6396 12.7867C20.6253 12.7989 20.6161 12.8161 20.6138 12.8348C20.2773 15.6324 19.7339 20.1499 19.627 25.5327C19.6248 25.6458 19.716 25.7392 19.8291 25.7392H20.0313C20.3646 25.7392 20.6348 26.0094 20.6348 26.3427C20.6348 26.676 20.3646 26.9462 20.0313 26.9462H19.8109C19.6995 26.9462 19.6091 27.0359 19.6088 27.1473C19.5992 30.79 19.8054 34.7699 20.4097 38.8445C20.4244 38.9434 20.5095 39.0167 20.6095 39.0167H21.0875C21.4207 39.0167 21.691 39.2869 21.691 39.6202C21.691 39.9536 21.4207 40.2237 21.0875 40.2237H20.8688C20.7435 40.2237 20.6483 40.3365 20.6699 40.4598C20.8391 41.4327 21.0321 42.409 21.2514 43.3857C21.2721 43.4778 21.3541 43.5431 21.4485 43.5431H22.7471C24.0457 43.5431 25.1105 44.5433 25.2134 45.8154C25.2225 45.9267 25.131 46.0176 25.0193 46.0176H9.24941C9.13769 46.0176 9.04627 45.9267 9.0553 45.8154C9.15819 44.5433 10.2231 43.5431 11.5216 43.5431H12.7852C12.8796 43.5431 12.9615 43.4778 12.9822 43.3857C13.2016 42.409 13.3946 41.4327 13.5638 40.4598C13.5853 40.3365 13.4901 40.2237 13.3649 40.2237H13.2115C12.8781 40.2237 12.6079 39.9536 12.6079 39.6202C12.6079 39.2869 12.8781 39.0167 13.2115 39.0167H13.6242C13.7242 39.0167 13.8093 38.9434 13.8239 38.8445C14.4283 34.7699 14.6345 30.79 14.6248 27.1473C14.6246 27.0359 14.5342 26.9462 14.4228 26.9462H14.2374C13.9042 26.9462 13.6339 26.676 13.6339 26.3427C13.6339 26.0094 13.9042 25.7392 14.2374 25.7392H14.4046C14.5177 25.7392 14.6089 25.6458 14.6066 25.5327C14.4998 20.1499 13.9564 15.6324 13.6199 12.8348C13.6176 12.8161 13.6084 12.7989 13.594 12.7867L9.58673 9.37793ZM14.2381 43.2968C14.2105 43.4232 14.3066 43.5431 14.4361 43.5431H16.3286C16.4403 43.5431 16.5309 43.4526 16.5309 43.3409V40.426C16.5309 40.3143 16.4403 40.2237 16.3286 40.2237H14.9996C14.9007 40.2237 14.8164 40.2952 14.7999 40.3927C14.6362 41.3578 14.4498 42.3269 14.2381 43.2968ZM17.6775 43.3409C17.6775 43.4526 17.7681 43.5431 17.8798 43.5431H19.7976C19.9271 43.5431 20.0231 43.4232 19.9956 43.2968C19.7839 42.3269 19.5974 41.3578 19.4338 40.3927C19.4173 40.2952 19.3329 40.2237 19.2341 40.2237H17.8798C17.7681 40.2237 17.6775 40.3143 17.6775 40.426V43.3409ZM15.2528 39.0167C15.1292 39.0167 15.0346 38.9068 15.0523 38.7846C15.6392 34.7275 15.8406 30.7711 15.8316 27.1492C15.8314 27.0371 15.9221 26.9462 16.0341 26.9462H16.3286C16.4403 26.9462 16.5309 27.0368 16.5309 27.1485V38.8145C16.5309 38.9261 16.4403 39.0167 16.3286 39.0167H15.2528ZM17.8798 39.0167C17.7681 39.0167 17.6775 38.9261 17.6775 38.8145V27.1485C17.6775 27.0368 17.7681 26.9462 17.8798 26.9462H18.1996C18.3116 26.9462 18.4023 27.0371 18.402 27.1492C18.3931 30.7711 18.5945 34.7275 19.1814 38.7846C19.1991 38.9068 19.1044 39.0167 18.9809 39.0167H17.8798Z" fill="#223F7C"/>
<path d="M13.6051 28.6481C13.6353 28.6419 13.6645 28.6623 13.6646 28.6932C13.6665 29.8299 13.4714 33.5257 13.4304 34.2906C13.4258 34.3757 13.3735 34.445 13.2931 34.4727C12.2491 34.8335 5.25063 37.5592 4.88736 45.9094C4.88473 45.9686 4.83605 46.0176 4.77672 46.0176C1.75223 46.0176 -0.728973 43.5167 0.196397 40.6373C1.7734 35.7304 5.65962 30.2775 13.6051 28.6481Z" fill="#4DA8E3"/>
<path d="M20.5737 28.6481C20.5435 28.6419 20.5142 28.6623 20.5142 28.6932C20.5123 29.8299 20.7073 33.5257 20.7483 34.2906C20.7529 34.3757 20.8052 34.445 20.8857 34.4727C21.9297 34.8335 28.9278 37.5592 29.2911 45.9094C29.2937 45.9686 29.3424 46.0176 29.4018 46.0176C32.4262 46.0176 34.9075 43.5167 33.9821 40.6373C32.4052 35.7304 28.5191 30.2775 20.5737 28.6481Z" fill="#4DA8E3"/>
<path fill-rule="evenodd" clip-rule="evenodd" d="M74.8687 29.0171C73.4409 29.2037 72.0795 30.1129 71.4992 31.2669C70.7684 32.7201 70.8478 34.732 71.6862 36.0032C72.2526 36.862 73.2617 37.5294 74.4618 37.8388C75.1442 38.0149 76.8046 38.0551 77.6902 37.9173C78.2763 37.826 79.2316 37.5275 79.7494 37.274L79.8801 37.2101C80.0214 37.1408 80.1104 37.0021 80.1104 36.8507V35.9898C80.1104 35.2828 80.0821 34.8823 80.0324 34.8823C79.9896 34.8823 79.7122 35.0011 79.4161 35.1462C78.2982 35.694 76.856 35.8711 76.1137 35.5516C75.9094 35.4638 75.644 35.3022 75.5238 35.1925C75.2636 34.9552 75.0247 34.4815 75.0223 34.1986C75.0215 34.0866 75.1165 33.9953 75.234 33.9953H77.6364H80.0712C80.1787 33.9953 80.2737 33.9287 80.3055 33.8308C80.3351 33.7404 80.3559 33.3594 80.3517 32.984C80.3357 31.5427 79.6207 30.2888 78.4262 29.6077C77.7347 29.2133 77.0366 29.0377 76.0461 29.0088C75.5448 28.9943 75.0149 28.9979 74.8687 29.0171ZM81.7056 30.3694V31.235C81.7056 31.4522 81.8856 31.6305 82.1134 31.6388L82.2892 31.6453L82.5705 31.6558C82.7514 31.6624 82.9079 31.7777 82.9603 31.9428L83.271 32.9235C83.4899 33.6146 83.9376 35.0116 84.2655 36.028L84.771 37.5939C84.8252 37.762 84.9873 37.8773 85.1717 37.8794L86.7056 37.8958L88.2755 37.9126C88.4405 37.9144 88.5897 37.8197 88.6515 37.6741C88.7078 37.5411 88.9814 36.784 89.2593 35.9915C89.537 35.1991 89.7923 34.5237 89.8261 34.4907C89.9025 34.4163 89.9745 34.601 90.325 35.7693C90.4774 36.2775 90.688 36.9683 90.7927 37.3043L90.8921 37.6232C90.946 37.7961 91.1139 37.9141 91.3033 37.9122L92.9692 37.8956L94.6408 37.8791C94.8275 37.8772 94.991 37.7593 95.0435 37.5885L95.2848 36.8041C95.4661 36.2147 95.6836 35.4995 95.7683 35.2149C95.853 34.9304 95.9515 34.6144 95.987 34.5127C96.0226 34.411 96.1257 34.0785 96.2164 33.7736C96.307 33.4686 96.4902 32.8699 96.6234 32.4431L96.7818 31.9357C96.8323 31.7741 96.983 31.6593 97.1596 31.6477L97.4329 31.6299L97.6047 31.6188C97.8273 31.6042 98 31.428 98 31.2156V30.3734V29.5542C98 29.3325 97.8125 29.1522 97.5795 29.1501L95.7021 29.1341L93.8322 29.1182C93.5965 29.1163 93.4041 29.2978 93.4041 29.5223V30.3723V31.2259C93.4041 31.449 93.5942 31.6299 93.8284 31.6299H93.9031C94.3421 31.6299 94.3974 31.6454 94.3637 31.7594C94.3428 31.8305 94.1858 32.4376 94.015 33.1083C93.6782 34.4309 93.5996 34.6606 93.4832 34.6606C93.4413 34.6606 93.3863 34.569 93.3607 34.4572C93.3047 34.211 92.466 31.5312 92.0133 30.1516L91.7769 29.4316C91.7225 29.2657 91.5627 29.1515 91.3802 29.1481L90.5733 29.1333L89.7959 29.119C89.5994 29.1154 89.4262 29.2406 89.3769 29.4217L89.375 29.4291C89.3277 29.6028 89.2086 29.9945 89.1103 30.2995C89.0122 30.6044 88.7613 31.386 88.553 32.0366C87.8158 34.3376 87.7438 34.5408 87.6573 34.5674C87.6051 34.5833 87.5484 34.4652 87.5174 34.2762C87.4887 34.1015 87.3447 33.4927 87.1975 32.9235C87.0502 32.3543 86.9251 31.8389 86.9194 31.7778C86.912 31.697 87.0123 31.6569 87.289 31.6299C87.5045 31.6091 87.6681 31.4357 87.6672 31.2294L87.6631 30.3734L87.6592 29.5533C87.6582 29.3318 87.4703 29.1526 87.2379 29.1511L84.6815 29.1344L82.1327 29.1178C81.8972 29.1163 81.7056 29.2976 81.7056 29.5219V30.3694ZM76.7031 31.1593C76.9533 31.3794 77.1622 31.8472 77.1744 32.2146C77.1806 32.4014 77.0254 32.557 76.8293 32.5607L76.1031 32.5744L75.3555 32.5885C75.1717 32.592 75.0206 32.4512 75.0206 32.2759C75.0206 31.8582 75.2919 31.3445 75.6283 31.1251C75.9439 30.9193 76.4485 30.9353 76.7031 31.1593Z" fill="#24407D"/>
<path d="M204.969 25.3207C205.699 25.2519 206.706 25.154 207.206 25.1034C207.707 25.0527 208.193 25.0063 208.287 25.0003C208.379 24.9944 208.457 25.065 208.457 25.1543V30.2162V35.0346C208.457 35.2601 208.647 35.4428 208.88 35.4428H209.103H209.319C209.557 35.4428 209.747 35.6297 209.743 35.8578L209.729 36.6561L209.716 37.4704C209.712 37.6922 209.524 37.8706 209.294 37.8719L206.353 37.889L203.419 37.906C203.185 37.9073 202.995 37.7266 202.993 37.5017L202.985 36.7876C202.979 36.1712 202.971 35.6248 202.966 35.5735C202.961 35.5061 203.164 35.4742 203.698 35.4588L204.027 35.4493C204.256 35.4427 204.438 35.262 204.438 35.0413V31.5948V28.1603C204.438 27.9349 204.248 27.7522 204.014 27.7522H203.717H203.416C203.184 27.7522 202.995 27.5722 202.992 27.3485L202.985 26.7441C202.979 26.1898 202.971 25.695 202.966 25.6445C202.957 25.5312 203.269 25.4808 204.969 25.3207Z" fill="#24407D"/>
<path d="M222.844 30.2151C223.442 29.5589 224.425 29.0329 225.255 28.9243C226.429 28.7711 227.811 29.0639 228.403 29.5906C228.559 29.7292 228.703 29.8428 228.722 29.8428C228.742 29.8428 228.822 29.6581 228.9 29.4322L228.945 29.3009C229.003 29.1341 229.164 29.0214 229.347 29.0214H229.936H230.406C230.641 29.0214 230.83 29.2043 230.83 29.4296V30.8526V32.2684C230.83 32.4967 230.636 32.6806 230.399 32.6765L229.638 32.6634L228.696 32.6471C228.551 32.6446 228.427 32.5446 228.398 32.4069C228.253 31.708 227.784 31.2615 227.194 31.2615C226.677 31.2615 226.21 31.5196 225.977 31.9335C225.8 32.2454 225.786 32.3416 225.786 33.2774C225.786 34.1834 225.805 34.3177 225.96 34.6037C226.175 35.0005 226.636 35.3357 227.181 35.4918C227.949 35.7116 229.232 35.4881 230.018 34.9975C230.217 34.8728 230.415 34.7708 230.456 34.7708C230.502 34.7708 230.524 35.2048 230.509 35.9427L230.492 36.8874C230.491 37.0288 230.412 37.1587 230.286 37.2311L230.252 37.2504C229.082 37.923 226.607 38.2061 225.18 37.8307C223.427 37.3695 222.19 36.1484 221.837 34.5271C221.691 33.8673 221.679 32.9569 221.804 32.3068C221.931 31.6465 222.403 30.6982 222.844 30.2151Z" fill="#24407D"/>
<path d="M244.69 29.2955C245.286 29.248 247.278 29.0634 248.387 28.953C248.72 28.9197 249.053 28.888 249.127 28.8823C249.243 28.8736 249.259 28.9447 249.259 29.4322C249.259 29.7547 249.292 29.9922 249.334 29.9922C249.377 29.9922 249.539 29.8806 249.696 29.7443C250.409 29.1231 251.039 28.9152 252.219 28.9119C253.055 28.9096 253.113 28.9198 253.599 29.1548C254.036 29.3672 254.569 29.8436 254.569 30.0242C254.569 30.0506 254.622 30.1528 254.687 30.2513C254.748 30.3427 254.882 30.3552 254.96 30.2768L255.275 29.9604C256.047 29.1857 256.784 28.9078 258.056 28.9123C258.748 28.9146 258.908 28.9402 259.271 29.1057C259.868 29.379 260.147 29.6415 260.399 30.166C260.756 30.9121 260.807 31.2901 260.839 33.4641L260.865 35.0938C260.868 35.3105 261.046 35.487 261.271 35.4956L261.435 35.502L261.593 35.5081C261.821 35.5168 262 35.6968 262 35.9159V36.7153V37.4986C262 37.7241 261.811 37.9068 261.576 37.9068H259.422H257.267C257.033 37.9068 256.843 37.7241 256.843 37.4986V34.9997C256.843 33.2622 256.814 32.0144 256.769 31.8982C256.567 31.3752 255.941 31.1694 255.527 31.4897C255.132 31.7965 255.084 32.1558 255.043 35.1628L255.011 37.504C255.006 37.7273 254.819 37.9068 254.587 37.9068H253.042H251.503C251.269 37.9068 251.08 37.7241 251.08 37.4986V35.0184C251.08 32.2755 251.071 32.1143 250.927 31.8193C250.673 31.3028 250.124 31.1774 249.711 31.5415C249.336 31.8736 249.265 32.488 249.262 35.4241L249.259 37.499C249.259 37.7243 249.07 37.9068 248.836 37.9068H246.681H244.526C244.292 37.9068 244.103 37.7241 244.103 37.4986V36.7153V35.9165C244.103 35.6972 244.282 35.5171 244.509 35.5086L244.69 35.502L244.871 35.4953C245.098 35.4869 245.278 35.3067 245.278 35.0874V33.5388V31.9902C245.278 31.7709 245.098 31.5909 244.871 31.5825L244.69 31.5756L244.509 31.569C244.282 31.5605 244.103 31.3804 244.103 31.1611V30.4481V29.7181C244.103 29.5057 244.271 29.3288 244.491 29.3112L244.69 29.2955Z" fill="#24407D"/>
<path fill-rule="evenodd" clip-rule="evenodd" d="M195.982 28.9137C195.898 28.9327 195.642 28.9844 195.413 29.0287C195.183 29.0727 194.711 29.2429 194.363 29.4066C192.85 30.1186 192 31.5645 192 33.4248C192 34.9761 192.566 36.1793 193.705 37.0499C194.562 37.7057 195.593 37.9888 197.123 37.989C198.666 37.9891 199.385 37.8495 200.597 37.3145L200.854 37.2009C201.004 37.1344 201.101 36.9895 201.101 36.8299V35.9686C201.101 35.3509 201.07 34.8455 201.033 34.8455C200.995 34.8455 200.765 34.9432 200.52 35.0627C199.558 35.5329 198.335 35.7895 197.612 35.6731C196.717 35.5292 196.019 34.8357 196.019 34.0894C196.019 33.9553 196.128 33.9494 198.631 33.9494C200.577 33.9494 201.258 33.9267 201.3 33.8602C201.401 33.6981 201.35 32.4279 201.222 31.9335C200.738 30.0617 199.226 28.9765 197.005 28.9066C196.526 28.8915 196.065 28.8948 195.982 28.9137ZM198.142 31.8918C198.08 31.5993 197.978 31.3871 197.811 31.2079C197.618 31.0012 197.5 30.9422 197.23 30.9189C197.044 30.9028 196.823 30.9192 196.74 30.9555C196.354 31.1227 196.019 31.7147 196.019 32.2298C196.019 32.3961 196.159 32.5308 196.332 32.5308H197.084C197.797 32.5308 198.085 32.5359 198.174 32.41C198.237 32.3203 198.2 32.164 198.142 31.8918Z" fill="#24407D"/>
<path fill-rule="evenodd" clip-rule="evenodd" d="M214.734 28.944C212.405 29.3643 210.959 31.0741 210.96 33.4042C210.963 35.6175 212.248 37.2627 214.421 37.8329C215.416 38.094 217.431 38.0416 218.475 37.7275C219.12 37.5329 219.987 37.1458 220.055 37.022C220.124 36.8951 220.089 34.9235 220.017 34.8523C219.994 34.8304 219.816 34.9001 219.62 35.0073C218.705 35.5086 217.314 35.8039 216.54 35.661C215.699 35.5052 214.98 34.7991 214.98 34.127C214.98 34.029 215.062 33.9494 215.164 33.9494H217.598C220.021 33.9494 220.222 33.9398 220.271 33.8188C220.371 33.5775 220.315 32.3532 220.181 31.8641C219.809 30.5054 218.821 29.525 217.376 29.0838C216.845 28.9217 215.309 28.8402 214.734 28.944ZM217.155 32.1489C217.087 31.5878 216.831 31.1175 216.526 30.9918C215.784 30.6864 215.099 31.1966 215 32.1286C214.977 32.344 215.154 32.5308 215.378 32.5308H216.079H216.802C217.013 32.5308 217.179 32.3523 217.155 32.1489Z" fill="#24407D"/>
<path fill-rule="evenodd" clip-rule="evenodd" d="M236.481 28.9171C234.301 29.2357 232.966 30.3041 232.489 32.1127C232.201 33.2072 232.366 34.786 232.865 35.7027C232.976 35.9072 233.298 36.3141 233.579 36.6069C234.483 37.5477 235.669 37.9847 237.328 37.9884C238.307 37.9906 238.582 37.9603 239.248 37.7766C240.779 37.3549 241.865 36.3065 242.324 34.8082C242.541 34.101 242.524 32.5895 242.293 31.8588C241.853 30.4733 240.741 29.4896 239.133 29.0643C238.688 28.9469 236.94 28.8499 236.481 28.9171ZM238.287 31.8454C238.185 31.6257 238.038 31.4525 237.894 31.3788C237.392 31.1233 236.883 31.2745 236.611 31.7608C236.242 32.4206 236.227 34.361 236.587 35.0545C237.015 35.8823 237.89 35.8602 238.285 35.0115C238.434 34.6946 238.451 34.5335 238.451 33.4268C238.451 32.3236 238.434 32.1584 238.287 31.8454Z" fill="#24407D"/>
<path d="M153.841 24.2702C154.5 24.2004 155.3 24.1135 155.618 24.0771C155.937 24.0406 156.294 24.006 156.411 24.0003C156.526 23.9946 156.623 24.0887 156.623 24.2067V29.6213V34.813C156.623 35.0559 156.816 35.2528 157.055 35.2528H157.28H157.506C157.744 35.2528 157.937 35.4497 157.937 35.6926V36.5802V37.4678C157.937 37.7107 157.744 37.9076 157.506 37.9076H154.498H151.49C151.251 37.9076 151.058 37.7107 151.058 37.4678V36.5802V35.6926C151.058 35.4497 151.251 35.2528 151.49 35.2528H151.792H152.095C152.333 35.2528 152.527 35.0559 152.527 34.813V31.1097V27.4063C152.527 27.1634 152.333 26.9665 152.095 26.9665H151.792H151.49C151.251 26.9665 151.058 26.7696 151.058 26.5267V25.7715V24.97C151.058 24.7459 151.223 24.5576 151.442 24.5329L151.85 24.4867C152.286 24.4373 153.182 24.34 153.841 24.2702Z" fill="#24407D"/>
<path d="M144.063 28.45C144.743 28.3784 145.578 28.2917 145.918 28.2573C146.834 28.1648 146.768 28.1133 146.768 28.9191C146.768 29.3054 146.78 29.6215 146.795 29.6215C146.81 29.6215 146.995 29.4601 147.206 29.2629C147.773 28.7318 149.023 28.1733 149.644 28.1733C149.742 28.1733 149.821 28.254 149.821 28.3536V30.029C149.821 31.7587 149.812 31.8818 149.686 31.843C149.612 31.82 149.259 31.7408 148.903 31.6674C147.845 31.4486 147.348 31.5888 147 32.2042C146.865 32.443 146.842 32.6517 146.82 33.8651L146.802 34.8048C146.798 35.0508 146.992 35.2528 147.234 35.2528H147.457H147.689C147.928 35.2528 148.121 35.4497 148.121 35.6926V36.5802V37.4678C148.121 37.7107 147.928 37.9076 147.689 37.9076H144.874H142.06C141.821 37.9076 141.628 37.7107 141.628 37.4678V36.5802V35.6926C141.628 35.4497 141.821 35.2528 142.06 35.2528H142.169H142.279C142.517 35.2528 142.71 35.0559 142.71 34.813V33.1612V31.5092C142.71 31.2663 142.517 31.0694 142.279 31.0694H142.169H142.06C141.821 31.0694 141.628 30.8725 141.628 30.6296V29.8746V29.0851C141.628 28.8561 141.801 28.6654 142.025 28.6468L142.227 28.6301C142.557 28.6026 143.383 28.5217 144.063 28.45Z" fill="#24407D"/>
<path fill-rule="evenodd" clip-rule="evenodd" d="M133.976 28.2529C131.705 28.6353 130.252 30.1585 130.035 32.3863C129.706 35.7585 131.732 37.995 135.12 38C136.121 38.0014 136.408 37.9646 137.119 37.7437C139.196 37.0975 140.316 35.4551 140.325 33.0405C140.331 31.518 139.985 30.5463 139.121 29.6615C138.525 29.0509 137.886 28.6715 136.999 28.4031C136.409 28.2241 134.662 28.1373 133.976 28.2529ZM136.249 33.1208C136.257 31.754 136.153 31.3113 135.742 30.9509C135.582 30.8106 135.422 30.7492 135.226 30.7527C134.46 30.7664 134.16 31.2544 134.081 32.6171C133.999 34.0393 134.241 35.0541 134.734 35.3533C135.249 35.6659 135.784 35.423 136.066 34.7494C136.223 34.3751 136.243 34.1916 136.249 33.1208Z" fill="#24407D"/>
<path fill-rule="evenodd" clip-rule="evenodd" d="M168.99 24.0771C168.672 24.1135 167.872 24.2001 167.213 24.2697C166.554 24.3391 165.675 24.4354 165.261 24.4835L164.89 24.5266C164.672 24.5519 164.507 24.74 164.507 24.9636V25.7657V26.5351C164.507 26.7721 164.692 26.9666 164.924 26.9746L165.184 26.9835L165.451 26.9927C165.68 27.0005 165.864 27.1898 165.868 27.4233L165.881 28.0512C165.892 28.6255 165.884 29.143 165.862 29.201C165.835 29.2751 165.702 29.2106 165.414 28.9848C164.746 28.46 164.221 28.2499 163.446 28.198C161.418 28.0626 159.87 29.447 159.4 31.816C159.221 32.7196 159.214 33.2581 159.371 34.1378C159.81 36.6026 161.168 37.9897 163.148 37.9954C164.154 37.9982 164.649 37.8104 165.34 37.1638C165.522 36.9939 165.707 36.8781 165.751 36.9067C165.796 36.9354 165.823 37.1607 165.812 37.413C165.801 37.6612 165.994 37.8691 166.238 37.8711L168.396 37.8886L170.565 37.9063C170.805 37.9082 171 37.7107 171 37.4665V36.5812V35.6926C171 35.4497 170.807 35.2528 170.568 35.2528H170.459H170.35C170.111 35.2528 169.918 35.0559 169.918 34.813V29.6213V24.1673C169.918 24.0711 169.838 23.9946 169.744 24.0003C169.648 24.006 169.309 24.0406 168.99 24.0771ZM165.888 33.1123C165.866 31.2263 165.853 31.1812 165.223 30.9004C164.369 30.5194 163.536 30.9401 163.216 31.9142C163.019 32.516 163.046 33.7014 163.273 34.3276C163.709 35.5354 164.78 35.843 165.654 35.0119L165.769 34.9027C165.857 34.8183 165.907 34.6997 165.906 34.5759L165.888 33.1123Z" fill="#24407D"/>
<path d="M101.076 18.0741C101.034 18.1161 101 19.1082 101 20.2788V21.7891C101 22.1303 101.28 22.4069 101.625 22.4069H102.01C103.196 22.4069 103.031 22.2003 103.631 24.441C103.856 25.2799 104.085 26.119 104.14 26.3056C104.322 26.9233 105.319 30.5104 106.261 33.9331C106.578 35.0829 106.906 36.2524 106.99 36.532C107.074 36.8117 107.198 37.2575 107.266 37.5225L107.269 37.5332C107.339 37.8097 107.592 38.0026 107.88 38L110.702 37.9744L113.545 37.9489C113.823 37.9462 114.066 37.7623 114.141 37.4975L114.959 34.6111C115.477 32.7777 116.001 30.871 116.122 30.3743C116.475 28.9227 116.606 28.9791 117.038 30.769C117.196 31.4216 117.51 32.6165 117.737 33.4245C117.963 34.2325 118.32 35.5536 118.531 36.3601C118.741 37.1669 118.952 37.8667 119.001 37.9155C119.049 37.9646 120.568 37.9909 122.375 37.9744L125.187 37.9489C125.468 37.9462 125.712 37.7597 125.785 37.4922L125.924 36.984C126.069 36.4559 126.292 35.6421 126.421 35.1761C126.549 34.71 126.693 34.176 126.741 33.9895C126.788 33.8031 127.191 32.3284 127.635 30.7124C128.079 29.0967 128.753 26.6303 129.131 25.2319C129.51 23.8336 129.86 22.6259 129.909 22.5481C129.97 22.4526 130.321 22.4069 130.999 22.4069H131.375C131.72 22.4069 132 22.1303 132 21.7891V20.202V18.6194C132 18.2765 131.717 17.9992 131.37 18.0016L127.943 18.0268L124.507 18.0519C124.163 18.0544 123.886 18.3303 123.886 18.6696V20.2034V21.7733C123.886 22.0982 124.141 22.3675 124.469 22.3896L124.726 22.4069C125.453 22.4559 125.561 22.4905 125.531 22.6651C125.513 22.7759 125.252 23.6911 124.953 24.699C124.653 25.707 124.273 27.04 124.108 27.6615C123.768 28.948 123.552 29.3075 123.435 28.7808C123.229 27.8503 122.713 25.9779 120.583 18.4238C120.513 18.1732 120.282 18 120.019 18H117.958C115.668 18 115.447 18.0171 115.395 18.1977C115.091 19.2418 114.176 22.5119 113.426 25.2319C112.37 29.0608 112.288 29.3227 112.136 29.3225C112.074 29.3225 111.931 28.9488 111.818 28.4919C111.704 28.0352 111.29 26.523 110.897 25.1315C110.504 23.7401 110.21 22.5578 110.243 22.5043C110.275 22.4507 110.703 22.4069 111.193 22.4069H111.451C111.799 22.4069 112.08 22.1252 112.076 21.7807L112.054 20.2316L112.032 18.6622C112.027 18.3257 111.751 18.055 111.41 18.0531L106.587 18.0272C103.598 18.0109 101.117 18.0321 101.076 18.0741Z" fill="#24407D"/>
<path d="M49.058 21.8017V20.1992V18.6177C49.058 18.2765 49.3484 18 49.7065 18H53.7499H58.0464C58.2892 18 58.5116 18.1291 58.6228 18.3348L59.1902 19.3842C59.6018 20.1457 60.8324 22.4213 61.9249 24.4413C63.0173 26.4612 64.0825 28.4444 64.2919 28.8484C64.5015 29.2524 64.7251 29.5703 64.7889 29.5547C64.8632 29.5367 64.905 28.2551 64.905 25.995V23.0608C64.905 22.7279 64.6279 22.4548 64.2784 22.4435L63.8892 22.4309L63.4999 22.4184C63.1505 22.4073 62.8733 22.1342 62.8733 21.801V20.2556C62.8733 18.6198 62.9077 18.1116 63.0185 18.1071C63.0983 18.1042 64.8354 18.1042 66.8786 18.1073C68.9219 18.1104 70.6851 18.113 70.7968 18.1128C70.9831 18.1128 71 18.2905 71 20.2599V21.7893C71 22.1305 70.7097 22.407 70.3516 22.407H70.0132H69.6713C69.3145 22.407 69.0248 22.6817 69.0228 23.0215L68.9976 27.4076C68.9817 30.158 68.9687 33.6541 68.9686 35.1768L68.9684 37.3277C68.9684 37.6689 68.678 37.9454 68.32 37.9454H65.0829H61.5879C61.3476 37.9454 61.127 37.8188 61.0147 37.6163L58.7196 33.4817C57.3567 31.0266 56.0315 28.5984 55.7745 28.0856C55.5175 27.5729 55.2595 27.1535 55.2011 27.1535C55.1396 27.1535 55.095 28.4816 55.095 30.3176C55.095 32.769 55.1277 33.4836 55.2401 33.4902C55.32 33.4949 55.7352 33.5077 56.1632 33.5186C56.591 33.5293 56.9828 33.589 57.0339 33.6512C57.0848 33.7134 57.1113 34.7183 57.0926 35.8846L57.0684 37.3917C57.063 37.731 56.7713 38.0027 56.4151 38L53.0293 37.9751L49.6434 37.9501C49.2873 37.9475 49 37.6717 49 37.3324V35.7419V34.1506C49 33.8114 49.2869 33.5359 49.6428 33.5328L49.9563 33.5303C50.4822 33.5258 50.9383 33.4972 50.9699 33.4665C51.0016 33.4356 51.0304 30.9475 51.0342 27.937L51.0402 23.061C51.0406 22.7279 50.7637 22.4544 50.4142 22.4431L50.0495 22.4309L49.6841 22.419C49.3349 22.4075 49.058 22.1344 49.058 21.8017Z" fill="#24407D"/>
<path d="M175.192 18.0129C175.017 18.0466 175 18.384 175 21.8988V25.1278C175 25.4704 175.286 25.748 175.639 25.748H176.754H177.964C178.277 25.748 178.544 25.5279 178.595 25.2279L178.655 24.8688C178.736 24.3852 178.849 23.6831 178.905 23.3087C179.059 22.2845 179.005 22.3304 180.006 22.3681L180.28 22.3782C180.623 22.391 180.895 22.6647 180.895 22.998V27.9037V32.8078C180.895 33.1416 180.622 33.4158 180.278 33.4276L179.925 33.4397C179.392 33.4581 178.925 33.5224 178.888 33.5828C178.85 33.6432 178.823 34.6494 178.827 35.8187L178.832 37.3297C178.833 37.6702 179.117 37.946 179.468 37.9479L184.471 37.9739L189.466 38C189.82 38.0019 190.108 37.7238 190.108 37.38V35.7331V34.0833C190.108 33.7408 189.822 33.4631 189.469 33.4631H189.078H188.687C188.335 33.4631 188.048 33.1855 188.048 32.8429V27.8991V22.9784C188.048 22.6269 188.349 22.3457 188.711 22.3585L188.983 22.3683L189.392 22.3825C189.698 22.3933 189.953 22.6128 190 22.9062L190.129 23.7059C190.246 24.4235 190.368 25.1766 190.401 25.3794C190.436 25.5917 190.625 25.748 190.847 25.748H192.231H193.361C193.714 25.748 194 25.4704 194 25.1278V21.8905C194 18.881 193.968 18.0328 193.857 18.0313C191.409 18.0032 175.327 17.9873 175.192 18.0129Z" fill="#24407D"/>
</svg>
