<svg width="140" height="87" viewBox="0 0 140 87" fill="none" xmlns="http://www.w3.org/2000/svg">
<path d="M70.7482 2.00314C70.6976 1.66176 70.2052 1.66176 70.1547 2.00314L69.5942 5.78616C69.5724 5.93326 69.4461 6.0422 69.2974 6.0422H67.3245C67.1095 6.0422 66.9643 6.26179 67.0485 6.45967L67.6883 7.96325C67.7354 8.07393 67.8441 8.14578 67.9644 8.14578H72.9385C73.0588 8.14578 73.1674 8.07393 73.2145 7.96325L73.8543 6.45967C73.9385 6.26179 73.7933 6.0422 73.5783 6.0422H71.6054C71.4567 6.0422 71.3304 5.93326 71.3086 5.78616L70.7482 2.00314Z" fill="white"/>
<path d="M66.2571 12.7658C66.137 12.9198 65.9041 12.9198 65.7839 12.7658L63.4138 9.72683C63.2602 9.52983 63.4005 9.24233 63.6504 9.24233L68.3906 9.24234C68.6405 9.24234 68.7809 9.52984 68.6272 9.72683L66.2571 12.7658Z" fill="white"/>
<path d="M75.0293 12.7658C74.9092 12.9198 74.6763 12.9198 74.5562 12.7658L72.186 9.72683C72.0324 9.52983 72.1727 9.24233 72.4226 9.24233L77.1629 9.24234C77.4127 9.24234 77.5531 9.52984 77.3994 9.72683L75.0293 12.7658Z" fill="white"/>
<path d="M61.871 10.0608C61.7509 9.90662 61.5178 9.90662 61.3977 10.0608L59.013 13.1218C58.8595 13.3188 58.9999 13.6061 59.2496 13.6061L64.019 13.6061C64.2688 13.6061 64.4092 13.3188 64.2557 13.1218L61.871 10.0608Z" fill="white"/>
<path d="M70.6432 10.0608C70.5231 9.90662 70.29 9.90662 70.1699 10.0608L67.7852 13.1218C67.6317 13.3188 67.7721 13.6061 68.0218 13.6061L72.7913 13.6061C73.041 13.6061 73.1814 13.3188 73.0279 13.1218L70.6432 10.0608Z" fill="white"/>
<path d="M79.4157 10.0608C79.2956 9.90662 79.0625 9.90662 78.9424 10.0608L76.5577 13.1218C76.4042 13.3188 76.5446 13.6061 76.7943 13.6061L81.5637 13.6061C81.8135 13.6061 81.9539 13.3188 81.8004 13.1218L79.4157 10.0608Z" fill="white"/>
<path d="M70.6829 23.0252C70.5794 23.269 70.2339 23.269 70.1305 23.0252L66.9582 15.545C66.8743 15.3472 67.0195 15.1279 67.2344 15.1279L73.5789 15.1279C73.7938 15.1279 73.939 15.3472 73.8551 15.545L70.6829 23.0252Z" fill="white"/>
<path fill-rule="evenodd" clip-rule="evenodd" d="M59.2569 15.6564C59.0443 15.4756 59.1722 15.1279 59.4513 15.1279H65.061C65.1814 15.1279 65.2902 15.1999 65.3372 15.3107L67.1188 19.5103C67.1324 19.5424 67.1403 19.5758 67.1422 19.6106C67.2027 20.7474 67.3184 22.9888 67.3184 23.0946L67.3182 23.0966C67.3181 23.097 67.318 23.0975 67.3178 23.0979L67.3176 23.0983C67.3175 23.0986 67.3173 23.0988 67.3171 23.099C67.3166 23.0994 67.3164 23.1001 67.3165 23.1007C67.7937 27.246 68.3642 32.9931 68.493 39.6278C68.4961 39.7914 68.6296 39.9233 68.7932 39.9233H69.2563C69.422 39.9233 69.5563 39.7889 69.5563 39.6233V25.0097C69.5563 24.7387 69.8871 24.6066 70.0738 24.803L70.1892 24.9245C70.3074 25.049 70.5059 25.049 70.6242 24.9245L70.7396 24.803C70.9262 24.6066 71.2571 24.7387 71.2571 25.0097V39.6233C71.2571 39.7889 71.3914 39.9233 71.5571 39.9233H72.0576C72.2213 39.9233 72.3547 39.7914 72.3579 39.6278C72.4866 32.9955 73.0567 27.2501 73.5339 23.1052C73.5343 23.1016 73.5324 23.0982 73.5324 23.0946C73.5324 22.9888 73.6482 20.7474 73.7087 19.6106C73.7105 19.5758 73.7184 19.5424 73.732 19.5103L75.5137 15.3107C75.5607 15.1999 75.6694 15.1279 75.7898 15.1279H81.3996C81.6787 15.1279 81.8065 15.4756 81.594 15.6564L75.6504 20.7123C75.6291 20.7304 75.6154 20.7559 75.6121 20.7836C75.113 24.9329 74.307 31.6333 74.1486 39.617C74.1452 39.7848 74.2804 39.9233 74.4482 39.9233H74.7481C75.2425 39.9233 75.6432 40.324 75.6432 40.8184C75.6432 41.3128 75.2425 41.7135 74.7481 41.7135H74.4212C74.2561 41.7135 74.1219 41.8466 74.1215 42.0117C74.1073 47.4146 74.413 53.3175 75.3094 59.3609C75.3312 59.5077 75.4573 59.6164 75.6057 59.6164H76.3146C76.809 59.6164 77.2097 60.0171 77.2097 60.5115C77.2097 61.0059 76.809 61.4066 76.3146 61.4066H75.9903C75.8045 61.4066 75.6633 61.5738 75.6952 61.7568C75.9462 63.1997 76.2326 64.6478 76.5579 66.0964C76.5886 66.233 76.71 66.3299 76.8501 66.3299H78.7762C80.7022 66.3299 82.2816 67.8134 82.4342 69.7001C82.4476 69.8652 82.312 70 82.1463 70H58.7565C58.5909 70 58.4553 69.8652 58.4686 69.7001C58.6212 67.8134 60.2007 66.3299 62.1266 66.3299H64.0008C64.1408 66.3299 64.2623 66.233 64.293 66.0964C64.6183 64.6478 64.9046 63.1997 65.1557 61.7568C65.1875 61.5738 65.0463 61.4066 64.8606 61.4066H64.633C64.1386 61.4066 63.7379 61.0059 63.7379 60.5115C63.7379 60.0171 64.1386 59.6164 64.633 59.6164H65.2451C65.3935 59.6164 65.5197 59.5077 65.5414 59.3609C66.4378 53.3175 66.7436 47.4146 66.7293 42.0117C66.7289 41.8466 66.5948 41.7135 66.4297 41.7135H66.1548C65.6604 41.7135 65.2596 41.3128 65.2596 40.8184C65.2596 40.324 65.6604 39.9233 66.1548 39.9233H66.4027C66.5704 39.9233 66.7056 39.7848 66.7023 39.617C66.5438 31.6333 65.7379 24.9329 65.2388 20.7836C65.2354 20.7559 65.2217 20.7304 65.2004 20.7123L59.2569 15.6564ZM66.1557 65.9646C66.1148 66.1521 66.2574 66.3299 66.4493 66.3299H69.2563C69.422 66.3299 69.5563 66.1956 69.5563 66.0299V61.7066C69.5563 61.541 69.422 61.4066 69.2563 61.4066H67.2851C67.1385 61.4066 67.0134 61.5126 66.9889 61.6572C66.7462 63.0887 66.4697 64.526 66.1557 65.9646ZM71.2571 66.0299C71.2571 66.1956 71.3914 66.3299 71.5571 66.3299H74.4015C74.5935 66.3299 74.736 66.1521 74.6951 65.9646C74.3812 64.526 74.1046 63.0887 73.8619 61.6572C73.8374 61.5126 73.7123 61.4066 73.5657 61.4066H71.5571C71.3914 61.4066 71.2571 61.541 71.2571 61.7066V66.0299ZM67.6606 59.6164C67.4774 59.6164 67.3371 59.4534 67.3633 59.2721C68.2338 53.2547 68.5325 47.3865 68.5192 42.0146C68.5188 41.8483 68.6533 41.7135 68.8195 41.7135H69.2563C69.422 41.7135 69.5563 41.8479 69.5563 42.0135V59.3164C69.5563 59.482 69.422 59.6164 69.2563 59.6164H67.6606ZM71.5571 59.6164C71.3914 59.6164 71.2571 59.482 71.2571 59.3164V42.0135C71.2571 41.8479 71.3914 41.7135 71.5571 41.7135H72.0313C72.1975 41.7135 72.3321 41.8483 72.3316 42.0146C72.3184 47.3865 72.6171 53.2547 73.4876 59.2721C73.5138 59.4534 73.3734 59.6164 73.1902 59.6164H71.5571Z" fill="white"/>
<path d="M65.1559 44.2503C65.2317 44.2346 65.3049 44.2898 65.3047 44.3671C65.3006 46.1218 65.0176 51.4858 64.9574 52.6067C64.9507 52.7328 64.8731 52.8356 64.7538 52.8768C63.2098 53.4104 52.8853 57.4313 52.2914 69.7322C52.2843 69.8791 52.1636 70 52.0165 70C47.5891 70 43.9575 66.34 45.2969 62.1201C47.6112 54.8288 53.3582 46.6933 65.1559 44.2503Z" fill="white"/>
<path d="M75.6131 44.2503C75.5373 44.2346 75.4641 44.2898 75.4642 44.3671C75.4683 46.1218 75.7514 51.4858 75.8115 52.6067C75.8183 52.7328 75.8958 52.8356 76.0152 52.8768C77.5592 53.4104 87.8833 57.4313 88.4772 69.7322C88.4842 69.8791 88.6049 70 88.752 70C93.1794 70 96.811 66.34 95.4717 62.12C93.1576 54.8288 87.4108 46.6933 75.6131 44.2503Z" fill="white"/>
<path fill-rule="evenodd" clip-rule="evenodd" d="M0.0268554 78.2132V78.9914C0.0268554 79.153 0.154939 79.2856 0.316495 79.2912L0.485546 79.297L0.654265 79.3029C0.815954 79.3084 0.944085 79.4412 0.943896 79.603L0.941121 81.9709C0.939349 83.4329 0.926028 84.6412 0.911365 84.6562C0.896755 84.6711 0.685726 84.685 0.442416 84.6872L0.297392 84.6884C0.132731 84.6899 0 84.8237 0 84.9884V85.7612V86.5336C0 86.6984 0.132904 86.8323 0.297678 86.8336L1.86414 86.8457L3.43055 86.8578C3.59534 86.8591 3.73031 86.7272 3.73283 86.5624L3.74402 85.8305C3.75267 85.2641 3.74042 84.7761 3.71684 84.7459C3.69321 84.7157 3.51194 84.6867 3.31401 84.6815C3.11603 84.6762 2.92391 84.67 2.88696 84.6677C2.83496 84.6645 2.81982 84.3175 2.81982 83.127C2.81982 82.2354 2.84044 81.5904 2.86891 81.5904C2.89593 81.5904 3.01527 81.7941 3.13419 82.0431C3.2531 82.2921 3.86621 83.4713 4.49672 84.6636L5.55854 86.6715C5.61051 86.7698 5.71257 86.8313 5.82374 86.8313H7.44067H8.93829C9.10396 86.8313 9.23827 86.697 9.23829 86.5313L9.23837 85.4868C9.23842 84.7473 9.24444 83.0495 9.2518 81.7138L9.26348 79.5838C9.26439 79.4188 9.39843 79.2854 9.56348 79.2854H9.72166H9.8782C10.0439 79.2854 10.1782 79.1511 10.1782 78.9854V78.2427C10.1782 77.2863 10.1704 77.2 10.0842 77.2C10.0325 77.2001 9.21678 77.1988 8.27147 77.1973C7.32616 77.1958 6.52253 77.1958 6.48558 77.1972C6.43434 77.1994 6.41844 77.4462 6.41844 78.2406V78.9911C6.41844 79.1529 6.54667 79.2855 6.70833 79.2909L6.88841 79.297L7.0685 79.3031C7.23016 79.3086 7.35838 79.4412 7.35838 79.6029V81.0278C7.35838 82.1254 7.33905 82.7478 7.30467 82.7565C7.27513 82.7641 7.17168 82.6097 7.07474 82.4135C6.97784 82.2173 6.48505 81.2542 5.97963 80.2733C5.47421 79.2923 4.90487 78.1872 4.71447 77.8174L4.45196 77.3078C4.40052 77.2079 4.2976 77.1452 4.18526 77.1452H2.19752H0.326855C0.16117 77.1452 0.0268554 77.2795 0.0268554 77.4452V78.2132ZM33.2027 77.1812C33.1828 77.2016 33.1664 77.6834 33.1664 78.2519V78.9854C33.1664 79.1511 33.3008 79.2854 33.4664 79.2854H33.651C34.2201 79.2854 34.1411 79.1851 34.4293 80.2733C34.5372 80.6807 34.647 81.0882 34.6733 81.1788C34.7605 81.4788 35.2393 83.2209 35.6915 84.8831C35.8435 85.4415 36.0008 86.0095 36.0412 86.1453C36.0816 86.2811 36.1412 86.4976 36.1735 86.6263L36.1749 86.6315C36.2087 86.7658 36.33 86.8595 36.4685 86.8582L37.8226 86.8458L39.1872 86.8334C39.3207 86.8321 39.4374 86.7428 39.4734 86.6142L39.8656 85.2124C40.1146 84.322 40.3659 83.396 40.4239 83.1548C40.5935 82.4498 40.6563 82.4772 40.8636 83.3465C40.9392 83.6634 41.09 84.2437 41.1988 84.6361C41.3075 85.0285 41.479 85.6701 41.5799 86.0618C41.6807 86.4536 41.7823 86.7935 41.8055 86.8172C41.8288 86.841 42.5575 86.8538 43.425 86.8458L44.7747 86.8334C44.9093 86.8321 45.0265 86.7415 45.0616 86.6116L45.1283 86.3648C45.1976 86.1083 45.3048 85.7131 45.3666 85.4868C45.4283 85.2604 45.4975 85.0011 45.5202 84.9105C45.5431 84.82 45.7362 84.1038 45.9494 83.319C46.1626 82.5343 46.4858 81.3365 46.6676 80.6574C46.8494 79.9783 47.0174 79.3918 47.041 79.354C47.0701 79.3076 47.2386 79.2854 47.5641 79.2854H47.7443C47.91 79.2854 48.0443 79.1511 48.0443 78.9854V78.2146V77.446C48.0443 77.2795 47.9087 77.1448 47.7421 77.146L46.0973 77.1582L44.4481 77.1704C44.2833 77.1716 44.1503 77.3056 44.1503 77.4704V78.2153V78.9777C44.1503 79.1355 44.2725 79.2663 44.4299 79.277L44.5531 79.2854C44.902 79.3092 44.9538 79.326 44.9397 79.4108C44.9308 79.4646 44.8058 79.9091 44.662 80.3986C44.5182 80.8881 44.3359 81.5355 44.2569 81.8373C44.0935 82.4621 43.9897 82.6367 43.9337 82.3809C43.8348 81.929 43.5874 81.0197 42.5651 77.351C42.5313 77.2293 42.4205 77.1452 42.2942 77.1452H41.3051C40.2059 77.1452 40.1 77.1535 40.0748 77.2412C39.9293 77.7483 39.4901 79.3364 39.1301 80.6574C38.6233 82.5169 38.5837 82.6441 38.5107 82.644C38.4811 82.644 38.4125 82.4625 38.3581 82.2406C38.3038 82.0188 38.105 81.2844 37.9164 80.6086C37.7279 79.9329 37.5865 79.3587 37.6022 79.3327C37.6179 79.3067 37.8232 79.2854 38.0585 79.2854H38.182C38.3493 79.2854 38.4842 79.1486 38.4819 78.9813L38.4716 78.229L38.461 77.4668C38.4588 77.3034 38.3261 77.1719 38.1627 77.171L35.848 77.1584C34.4131 77.1505 33.2227 77.1608 33.2027 77.1812ZM80.737 77.1903C80.6546 77.2066 80.6468 77.3698 80.6468 79.0699V80.6318C80.6468 80.7975 80.7811 80.9318 80.9468 80.9318H81.4697H82.0376C82.1846 80.9318 82.31 80.8253 82.3336 80.6802L82.362 80.5065C82.4001 80.2726 82.4529 79.933 82.4793 79.7519C82.5515 79.2565 82.5261 79.2787 82.9958 79.2969L83.1244 79.3018C83.2855 79.308 83.4129 79.4404 83.4129 79.6016V81.9745V84.3466C83.4129 84.5081 83.285 84.6407 83.1235 84.6464L82.9581 84.6523C82.7079 84.6612 82.4888 84.6923 82.4711 84.7215C82.4535 84.7507 82.4406 85.2374 82.4426 85.803L82.4451 86.5339C82.4457 86.6986 82.5788 86.832 82.7435 86.8329L85.0914 86.8455L87.435 86.8581C87.6013 86.859 87.7366 86.7245 87.7366 86.5582V85.7616V84.9636C87.7366 84.7979 87.6023 84.6636 87.4366 84.6636H87.2532H87.0698C86.9042 84.6636 86.7698 84.5293 86.7698 84.3636V81.9723V79.5921C86.7698 79.4221 86.9109 79.2861 87.0807 79.2923L87.2087 79.297L87.4004 79.3039C87.5439 79.3091 87.6636 79.4153 87.6859 79.5572L87.7465 79.944C87.801 80.2911 87.8584 80.6554 87.8741 80.7535C87.8905 80.8562 87.9792 80.9318 88.0833 80.9318H88.7327H89.2628C89.4285 80.9318 89.5628 80.7975 89.5628 80.6318V79.0659C89.5628 77.6102 89.548 77.1999 89.4957 77.1992C88.3468 77.1856 80.8003 77.1779 80.737 77.1903ZM66.6283 77.4242C66.4067 77.449 65.8508 77.5083 65.3929 77.5559C64.935 77.6035 64.3127 77.6699 64.0099 77.7036L63.7262 77.7351C63.5743 77.752 63.4593 77.8804 63.4593 78.0333V78.58V79.0952C63.4593 79.2609 63.5937 79.3952 63.7593 79.3952H63.9696H64.1798C64.3455 79.3952 64.4798 79.5295 64.4798 79.6952V82.2215V84.7477C64.4798 84.9134 64.3455 85.0477 64.1798 85.0477H63.9696H63.7593C63.5937 85.0477 63.4593 85.182 63.4593 85.3477V85.9532V86.5587C63.4593 86.7244 63.5937 86.8587 63.7593 86.8587H65.8495H67.9396C68.1053 86.8587 68.2396 86.7244 68.2396 86.5587V85.9532V85.3477C68.2396 85.182 68.1053 85.0477 67.9396 85.0477H67.7831H67.6265C67.4608 85.0477 67.3265 84.9134 67.3265 84.7477V81.2062V77.5126C67.3265 77.4321 67.2592 77.3679 67.1788 77.3718C67.0975 77.3757 66.8498 77.3993 66.6283 77.4242ZM75.9202 77.4242C75.6987 77.449 75.1428 77.5081 74.6849 77.5556C74.227 77.6029 73.6167 77.6686 73.3287 77.7014L73.071 77.7308C72.9195 77.7481 72.805 77.8764 72.805 78.0289V78.5761V79.1009C72.805 79.2626 72.9333 79.3953 73.0949 79.4007L73.275 79.4068L73.4609 79.4131C73.6202 79.4184 73.7475 79.5475 73.7507 79.7068L73.7594 80.1351C73.7673 80.5269 73.7616 80.8799 73.7467 80.9195C73.7277 80.97 73.6349 80.926 73.4352 80.772C72.971 80.414 72.606 80.2707 72.0676 80.2353C70.6585 80.1429 69.5827 81.0873 69.2563 82.7033C69.1318 83.3197 69.1271 83.687 69.2359 84.2871C69.5408 85.9685 70.4846 86.9147 71.8608 86.9186C72.5593 86.9205 72.9034 86.7924 73.3838 86.3513C73.51 86.2354 73.6386 86.1564 73.6694 86.1759C73.7005 86.1955 73.7191 86.3492 73.7113 86.5213C73.7037 86.6906 73.8381 86.8324 74.0076 86.8338L75.507 86.8457L77.0143 86.8578C77.1809 86.8591 77.3167 86.7244 77.3167 86.5578V85.9539V85.3477C77.3167 85.182 77.1824 85.0477 77.0167 85.0477H76.9408H76.8648C76.6991 85.0477 76.5648 84.9134 76.5648 84.7477V81.2062V77.4857C76.5648 77.4201 76.5095 77.3679 76.4439 77.3718C76.3775 77.3757 76.1418 77.3993 75.9202 77.4242ZM101.191 77.4484C100.837 77.4856 100.124 77.5575 99.6067 77.6081C98.4029 77.7258 98.1821 77.7628 98.1888 77.8461C98.1917 77.8832 98.1977 78.2469 98.2022 78.6543L98.207 79.0985C98.2088 79.2629 98.3426 79.3952 98.507 79.3952H98.7205H98.9307C99.0964 79.3952 99.2307 79.5295 99.2307 79.6952V82.2195V84.7526C99.2307 84.9148 99.1018 85.0476 98.9397 85.0525L98.7071 85.0595C98.3285 85.0708 98.1849 85.0942 98.1888 85.1438C98.1917 85.1815 98.1977 85.5831 98.2022 86.0361L98.2073 86.561C98.2089 86.7263 98.3439 86.8591 98.5091 86.8581L100.587 86.8456L102.67 86.8331C102.833 86.8321 102.966 86.701 102.969 86.538L102.978 85.9395L102.988 85.3527C102.991 85.1851 102.856 85.0477 102.688 85.0477H102.535H102.377C102.212 85.0477 102.077 84.9134 102.077 84.7477V81.2062V77.4858C102.077 77.4202 102.022 77.3683 101.957 77.3726C101.89 77.377 101.546 77.4111 101.191 77.4484ZM13.6694 80.2541C12.6599 80.3927 11.6973 81.0677 11.287 81.9245C10.7703 83.0034 10.8264 84.4971 11.4192 85.4409C11.8197 86.0785 12.5332 86.574 13.3817 86.8037C13.8642 86.9344 15.0382 86.9643 15.6643 86.862C16.0787 86.7942 16.7542 86.5726 17.1203 86.3844L17.2127 86.3369C17.3126 86.2855 17.3755 86.1825 17.3755 86.0701V85.4309C17.3755 84.906 17.3555 84.6087 17.3204 84.6087C17.2901 84.6087 17.094 84.6969 16.8846 84.8046C16.0942 85.2113 15.0745 85.3428 14.5497 85.1056C14.4052 85.0404 14.2176 84.9204 14.1326 84.839C13.9486 84.6628 13.7797 84.3111 13.778 84.1011C13.7774 84.0179 13.8446 83.9501 13.9277 83.9501H15.6263H17.3478C17.4238 83.9501 17.491 83.9007 17.5135 83.828C17.5344 83.7609 17.5491 83.478 17.5461 83.1993C17.5348 82.1292 17.0293 81.1983 16.1847 80.6926C15.6958 80.3998 15.2022 80.2694 14.5019 80.248C14.1474 80.2372 13.7728 80.2399 13.6694 80.2541ZM51.5892 80.2727C50.011 80.5336 49.0019 81.5726 48.8507 83.0923C48.6219 85.3927 50.0297 86.9183 52.3845 86.9217C53.0797 86.9227 53.2792 86.8976 53.773 86.7469C55.2169 86.3061 55.9951 85.1857 56.0013 83.5386C56.0053 82.5 55.7647 81.8372 55.1647 81.2336C54.7505 80.8171 54.3062 80.5583 53.6903 80.3752C53.2797 80.2531 52.0661 80.1939 51.5892 80.2727ZM59.8876 80.2757C59.6512 80.2992 59.0712 80.3583 58.5985 80.4072C58.1259 80.4561 57.5518 80.5113 57.3229 80.53L57.1823 80.5414C57.0265 80.5541 56.9066 80.6842 56.9066 80.8404V81.379V81.894C56.9066 82.0597 57.0409 82.194 57.2066 82.194H57.2826H57.3586C57.5243 82.194 57.6586 82.3283 57.6586 82.494V83.6209V84.7477C57.6586 84.9134 57.5243 85.0477 57.3586 85.0477H57.2826H57.2066C57.0409 85.0477 56.9066 85.182 56.9066 85.3477V85.9532V86.5587C56.9066 86.7244 57.0409 86.8587 57.2066 86.8587H59.1625H61.1183C61.284 86.8587 61.4183 86.7244 61.4183 86.5587V85.9532V85.3477C61.4183 85.182 61.284 85.0477 61.1183 85.0477H60.9573H60.8021C60.6342 85.0477 60.499 84.9099 60.5021 84.7421L60.5142 84.1011C60.5298 83.2734 60.5456 83.131 60.6395 82.9681C60.8815 82.5483 61.2269 82.4527 61.9622 82.6019C62.2095 82.652 62.4543 82.706 62.506 82.7217C62.5936 82.7482 62.6 82.6642 62.6 81.4843V80.3414C62.6 80.2735 62.5449 80.2184 62.477 80.2184C62.0455 80.2184 61.1768 80.5994 60.7824 80.9617C60.6361 81.0962 60.5078 81.2063 60.4973 81.2063C60.4869 81.2063 60.4784 80.9907 60.4784 80.7272C60.4784 80.1775 60.5243 80.2126 59.8876 80.2757ZM93.242 80.2489C93.1829 80.2629 93.0016 80.3009 92.8392 80.3334C92.6767 80.3658 92.3421 80.4909 92.0957 80.6112C91.0244 81.1345 90.4222 82.1972 90.4222 83.5645C90.4222 84.7047 90.8228 85.589 91.6294 86.2289C92.2369 86.7109 92.9669 86.919 94.0505 86.9191C95.1433 86.9192 95.6526 86.8166 96.5104 86.4234L96.6925 86.3399C96.7991 86.291 96.8675 86.1845 96.8675 86.0672V85.4342C96.8675 84.9802 96.8458 84.6087 96.8193 84.6087C96.7928 84.6087 96.6294 84.6805 96.4563 84.7683C95.7746 85.1139 94.9087 85.3025 94.3968 85.217C93.7628 85.1112 93.2688 84.6015 93.2688 84.053C93.2688 83.9544 93.3458 83.9501 95.1187 83.9501C96.4963 83.9501 96.9787 83.9334 97.0083 83.8845C97.0803 83.7654 97.0442 82.8318 96.9536 82.4684C96.6104 81.0927 95.5396 80.2951 93.9671 80.2437C93.6274 80.2326 93.3011 80.235 93.242 80.2489ZM106.523 80.2712C104.873 80.5801 103.849 81.8368 103.85 83.5494C103.852 85.1761 104.762 86.3853 106.301 86.8044C107.006 86.9963 108.433 86.9578 109.172 86.7269C109.629 86.5839 110.243 86.2994 110.291 86.2084C110.34 86.1151 110.315 84.666 110.264 84.6137C110.248 84.5976 110.122 84.6488 109.983 84.7276C109.335 85.0961 108.35 85.3131 107.802 85.2081C107.206 85.0936 106.697 84.5746 106.697 84.0806C106.697 84.0086 106.755 83.9501 106.827 83.9501H108.551C110.267 83.9501 110.409 83.943 110.444 83.8541C110.515 83.6767 110.475 82.7769 110.38 82.4174C110.117 81.4188 109.417 80.6982 108.394 80.3739C108.018 80.2548 106.93 80.1949 106.523 80.2712ZM113.974 80.2567C113.386 80.3365 112.69 80.7231 112.266 81.2054C111.954 81.5605 111.62 82.2575 111.53 82.7428C111.441 83.2206 111.45 83.8897 111.553 84.3747C111.803 85.5663 112.679 86.4638 113.921 86.8028C114.931 87.0787 116.684 86.8706 117.513 86.3763L117.537 86.3621C117.626 86.3089 117.682 86.2134 117.683 86.1095L117.695 85.4151C117.705 84.8728 117.69 84.5538 117.657 84.5538C117.628 84.5538 117.488 84.6288 117.347 84.7204C116.79 85.081 115.882 85.2453 115.338 85.0837C114.952 84.969 114.625 84.7226 114.473 84.431C114.363 84.2208 114.35 84.1221 114.35 83.4562C114.35 82.7684 114.36 82.6977 114.485 82.4684C114.65 82.1642 114.981 81.9745 115.347 81.9745C115.765 81.9745 116.097 82.3027 116.2 82.8164C116.22 82.9176 116.308 82.9911 116.411 82.9929L117.078 83.0049L117.617 83.0145C117.785 83.0175 117.922 82.8824 117.922 82.7146V81.674V80.6281C117.922 80.4625 117.788 80.3281 117.622 80.3281H117.289H116.872C116.742 80.3281 116.628 80.4109 116.587 80.5335L116.555 80.63C116.5 80.796 116.443 80.9318 116.429 80.9318C116.416 80.9318 116.314 80.8483 116.203 80.7464C115.784 80.3593 114.805 80.1441 113.974 80.2567ZM121.924 80.2514C120.38 80.4856 119.435 81.2708 119.097 82.6001C118.893 83.4046 119.01 84.565 119.363 85.2387C119.442 85.389 119.67 85.6881 119.869 85.9033C120.509 86.5948 121.349 86.916 122.524 86.9187C123.217 86.9203 123.412 86.898 123.884 86.763C124.968 86.4531 125.737 85.6825 126.062 84.5813C126.216 84.0615 126.204 82.9506 126.04 82.4135C125.729 81.3952 124.941 80.6722 123.802 80.3596C123.487 80.2733 122.249 80.202 121.924 80.2514ZM130.356 80.2778C129.571 80.3589 128.16 80.4946 127.738 80.5295L127.597 80.5411C127.441 80.554 127.322 80.684 127.322 80.8401V81.3767V81.9007C127.322 82.0619 127.449 82.1943 127.61 82.2005L127.738 82.2054L127.866 82.2104C128.027 82.2166 128.154 82.3489 128.154 82.5101V83.6483V84.7865C128.154 84.9477 128.027 85.0801 127.866 85.0863L127.738 85.0912L127.61 85.0961C127.449 85.1023 127.322 85.2347 127.322 85.3959V85.983V86.5587C127.322 86.7244 127.456 86.8587 127.622 86.8587H129.148H130.674C130.84 86.8587 130.974 86.7246 130.974 86.559L130.976 85.034C130.978 82.876 131.028 82.4244 131.294 82.1803C131.586 81.9127 131.975 82.0049 132.155 82.3845C132.257 82.6013 132.263 82.7198 132.263 84.7358V86.5587C132.263 86.7244 132.397 86.8587 132.563 86.8587H133.653H134.747C134.911 86.8587 135.044 86.7268 135.047 86.5627L135.07 84.8419C135.099 82.6318 135.133 82.3677 135.413 82.1422C135.706 81.9068 136.149 82.0581 136.292 82.4425C136.324 82.5279 136.345 83.445 136.345 84.722V86.5587C136.345 86.7244 136.479 86.8587 136.645 86.8587H138.171H139.697C139.863 86.8587 139.997 86.7244 139.997 86.5587V85.983V85.3954C139.997 85.2344 139.87 85.1021 139.709 85.0957L139.597 85.0912L139.481 85.0865C139.321 85.0802 139.195 84.9505 139.193 84.7912L139.175 83.5934C139.152 81.9955 139.116 81.7177 138.863 81.1693C138.685 80.7838 138.487 80.5909 138.064 80.39C137.807 80.2684 137.694 80.2496 137.204 80.2479C136.303 80.2446 135.781 80.4488 135.234 81.0182L135.011 81.2508C134.956 81.3084 134.861 81.2992 134.818 81.232C134.772 81.1596 134.734 81.0845 134.734 81.0651C134.734 80.9324 134.357 80.5822 134.047 80.4261C133.703 80.2534 133.662 80.2459 133.07 80.2476C132.234 80.25 131.788 80.4028 131.283 80.8594C131.172 80.9596 131.057 81.0416 131.027 81.0416C130.997 81.0416 130.974 80.867 130.974 80.63C130.974 80.2717 130.962 80.2194 130.88 80.2258C130.828 80.23 130.592 80.2533 130.356 80.2778ZM18.5034 81.2581V81.9008C18.5034 82.062 18.6307 82.1944 18.7917 82.2006L18.916 82.2054L19.1149 82.2132C19.2428 82.2181 19.3535 82.3037 19.3905 82.4263L19.6102 83.1544C19.765 83.6675 20.0815 84.7047 20.3134 85.4593L20.6708 86.6219C20.7091 86.7467 20.8237 86.8323 20.9541 86.8338L22.0386 86.846L23.1486 86.8585C23.2653 86.8598 23.3708 86.7895 23.4145 86.6814C23.4543 86.5827 23.6477 86.0206 23.8442 85.4322C24.0406 84.8439 24.2211 84.3424 24.245 84.3179C24.299 84.2627 24.3499 84.3998 24.5977 85.2672C24.7055 85.6445 24.8544 86.1574 24.9284 86.4069L24.9987 86.6436C25.0368 86.772 25.1555 86.8596 25.2894 86.8582L26.4673 86.8459L27.6492 86.8336C27.7812 86.8322 27.8968 86.7447 27.9339 86.6179L28.1045 86.0355C28.2327 85.5979 28.3865 85.0669 28.4464 84.8556C28.5063 84.6444 28.5759 84.4098 28.601 84.3343C28.6262 84.2588 28.6991 84.0119 28.7632 83.7855C28.8273 83.5591 28.9568 83.1146 29.051 82.7977L29.163 82.421C29.1987 82.301 29.3052 82.2158 29.4301 82.2072L29.6233 82.194L29.7448 82.1857C29.9022 82.1749 30.0243 82.0441 30.0243 81.8864V81.2611V80.6529C30.0243 80.4883 29.8917 80.3544 29.727 80.3529L28.3996 80.341L27.0775 80.3292C26.9108 80.3278 26.7748 80.4625 26.7748 80.6292V81.2603V81.894C26.7748 82.0597 26.9092 82.194 27.0748 82.194H27.1276C27.438 82.194 27.4771 82.2055 27.4533 82.2901C27.4385 82.3429 27.3275 82.7936 27.2067 83.2916C26.9686 84.2735 26.913 84.4441 26.8307 84.4441C26.8011 84.4441 26.7622 84.3761 26.7441 84.2931C26.7045 84.1103 26.1115 82.1207 25.7914 81.0964L25.6243 80.5619C25.5858 80.4387 25.4728 80.3539 25.3438 80.3514L24.7733 80.3404L24.2236 80.3298C24.0847 80.3271 23.9622 80.4201 23.9274 80.5545L23.926 80.56C23.8926 80.689 23.8084 80.9798 23.7389 81.2062C23.6695 81.4326 23.4921 82.0129 23.3448 82.4959C22.8236 84.2043 22.7727 84.3551 22.7115 84.3749C22.6746 84.3867 22.6345 84.299 22.6126 84.1587C22.5923 84.029 22.4905 83.577 22.3864 83.1544C22.2823 82.7318 22.1938 82.3491 22.1898 82.3038C22.1846 82.2438 22.2555 82.214 22.4511 82.194C22.6035 82.1785 22.7192 82.0498 22.7185 81.8966L22.7156 81.2611L22.7129 80.6522C22.7122 80.4878 22.5793 80.3547 22.415 80.3536L20.6075 80.3412L18.8054 80.3289C18.6389 80.3278 18.5034 80.4624 18.5034 80.6289V81.2581ZM14.9664 81.8446C15.1433 82.008 15.291 82.3553 15.2996 82.6281C15.304 82.7668 15.1943 82.8823 15.0556 82.885L14.5422 82.8952L14.0136 82.9057C13.8836 82.9083 13.7768 82.8037 13.7768 82.6736C13.7768 82.3635 13.9686 81.9821 14.2065 81.8192C14.4296 81.6664 14.7864 81.6783 14.9664 81.8446ZM94.5375 81.9351C94.6556 82.0668 94.7284 82.2228 94.7721 82.4378C94.8698 82.9184 94.8873 82.9074 94.0225 82.9074H93.4901C93.3679 82.9074 93.2688 82.8084 93.2688 82.6862C93.2688 82.3076 93.5059 81.8725 93.7791 81.7496C93.8382 81.7229 93.9945 81.7109 94.1264 81.7227C94.3172 81.7398 94.4012 81.7832 94.5375 81.9351ZM107.792 81.7763C108.008 81.8687 108.189 82.2143 108.237 82.6267C108.254 82.7762 108.137 82.9074 107.987 82.9074H107.475H106.979C106.82 82.9074 106.695 82.7701 106.711 82.6118C106.781 81.9268 107.266 81.5518 107.792 81.7763ZM52.8166 82.1132C53.1024 82.359 53.1744 82.661 53.169 83.5934C53.1649 84.3238 53.1506 84.449 53.0417 84.7043C52.8459 85.1638 52.4736 85.3295 52.1161 85.1163C51.7736 84.9122 51.6054 84.2199 51.6626 83.2498C51.7173 82.3202 51.9255 81.9873 52.4579 81.978C52.5941 81.9756 52.7052 82.0175 52.8166 82.1132ZM73.3027 82.0787C73.74 82.2703 73.7494 82.301 73.7648 83.5876L73.7768 84.586C73.7778 84.6704 73.7432 84.7513 73.6815 84.8089L73.6018 84.8834C72.9942 85.4503 72.2505 85.2405 71.9471 84.4166C71.7898 83.9894 71.7706 83.1808 71.9079 82.7703C72.1302 82.1058 72.7091 81.8188 73.3027 82.0787ZM122.925 82.0607C123.027 82.1149 123.131 82.2422 123.203 82.4037C123.307 82.6337 123.319 82.7551 123.319 83.566C123.319 84.3794 123.307 84.4978 123.202 84.7307C122.922 85.3545 122.302 85.3707 121.999 84.7623C121.744 84.2526 121.755 82.8264 122.016 82.3415C122.209 81.9841 122.569 81.8729 122.925 82.0607Z" fill="white"/>
</svg>
