<svg width="53" height="70" viewBox="0 0 53 70" xmlns="http://www.w3.org/2000/svg">
  <path
    d="M26.7482 2.00314C26.6976 1.66176 26.2052 1.66176 26.1547 2.00314L25.5942 5.78616C25.5724 5.93326 25.4461 6.0422 25.2974 6.0422H23.3245C23.1095 6.0422 22.9643 6.26179 23.0485 6.45967L23.6883 7.96325C23.7354 8.07393 23.8441 8.14578 23.9644 8.14578H28.9385C29.0588 8.14578 29.1674 8.07393 29.2145 7.96325L29.8543 6.45967C29.9385 6.26179 29.7933 6.0422 29.5783 6.0422H27.6054C27.4567 6.0422 27.3304 5.93326 27.3086 5.78616L26.7482 2.00314Z" />
  <path
    d="M22.257 12.7655C22.1369 12.9195 21.904 12.9195 21.7839 12.7655L19.4138 9.72662C19.2601 9.52962 19.4005 9.24212 19.6503 9.24212L24.3906 9.24212C24.6404 9.24212 24.7808 9.52962 24.6272 9.72662L22.257 12.7655Z" />
  <path
    d="M31.0294 12.7655C30.9093 12.9195 30.6764 12.9195 30.5563 12.7655L28.1861 9.72662C28.0325 9.52962 28.1729 9.24212 28.4227 9.24212L33.163 9.24212C33.4128 9.24212 33.5532 9.52962 33.3995 9.72662L31.0294 12.7655Z" />
  <path
    d="M17.8709 10.0606C17.7508 9.90644 17.5177 9.90644 17.3976 10.0606L15.0129 13.1216C14.8594 13.3186 14.9998 13.6059 15.2496 13.6059L20.019 13.6059C20.2687 13.6059 20.4091 13.3186 20.2556 13.1216L17.8709 10.0606Z" />
  <path
    d="M26.6433 10.0606C26.5232 9.90644 26.2901 9.90644 26.17 10.0606L23.7853 13.1216C23.6318 13.3186 23.7722 13.6059 24.0219 13.6059L28.7913 13.6059C29.0411 13.6059 29.1815 13.3186 29.028 13.1216L26.6433 10.0606Z" />
  <path
    d="M35.4157 10.0606C35.2956 9.90644 35.0625 9.90644 34.9424 10.0606L32.5577 13.1216C32.4042 13.3186 32.5446 13.6059 32.7943 13.6059L37.5637 13.6059C37.8135 13.6059 37.9539 13.3186 37.8004 13.1216L35.4157 10.0606Z" />
  <path
    d="M26.6828 23.025C26.5794 23.2688 26.2339 23.2688 26.1305 23.025L22.9582 15.5448C22.8743 15.347 23.0195 15.1277 23.2344 15.1277L29.5789 15.1277C29.7938 15.1277 29.939 15.347 29.8551 15.5448L26.6828 23.025Z" />
  <path fill-rule="evenodd" clip-rule="evenodd"
    d="M15.2568 15.6564C15.0443 15.4756 15.1721 15.1279 15.4512 15.1279H21.061C21.1814 15.1279 21.2901 15.1999 21.3372 15.3108L23.1188 19.5103C23.1324 19.5425 23.1403 19.5759 23.1421 19.6107C23.2027 20.7475 23.3184 22.9889 23.3184 23.0947L23.3182 23.0966C23.3181 23.0971 23.318 23.0975 23.3178 23.098L23.3176 23.0984C23.3175 23.0986 23.3173 23.0989 23.3171 23.099C23.3166 23.0995 23.3164 23.1001 23.3164 23.1008C23.7937 27.2461 24.3642 32.9932 24.4929 39.6279C24.4961 39.7915 24.6295 39.9233 24.7932 39.9233H25.2563C25.4219 39.9233 25.5563 39.789 25.5563 39.6233V25.0097C25.5563 24.7387 25.8871 24.6066 26.0738 24.8031L26.1891 24.9246C26.3074 25.0491 26.5059 25.0491 26.6241 24.9246L26.7395 24.8031C26.9262 24.6066 27.257 24.7387 27.257 25.0097V39.6233C27.257 39.789 27.3913 39.9233 27.557 39.9233H28.0576C28.2212 39.9233 28.3547 39.7915 28.3579 39.6279C28.4865 32.9956 29.0567 27.2502 29.5338 23.1052C29.5342 23.1017 29.5324 23.0982 29.5324 23.0947C29.5324 22.9889 29.6481 20.7475 29.7086 19.6107C29.7105 19.5759 29.7184 19.5425 29.732 19.5103L31.5136 15.3108C31.5607 15.1999 31.6694 15.1279 31.7898 15.1279H37.3996C37.6786 15.1279 37.8065 15.4756 37.5939 15.6564L31.6504 20.7123C31.6291 20.7305 31.6154 20.7559 31.612 20.7837C31.113 24.9329 30.307 31.6334 30.1485 39.6171C30.1452 39.7848 30.2804 39.9233 30.4482 39.9233H30.7481C31.2425 39.9233 31.6432 40.3241 31.6432 40.8185C31.6432 41.3128 31.2425 41.7136 30.7481 41.7136H30.4212C30.256 41.7136 30.1219 41.8467 30.1215 42.0118C30.1072 47.4147 30.413 53.3176 31.3094 59.361C31.3311 59.5078 31.4573 59.6164 31.6057 59.6164H32.3146C32.8089 59.6164 33.2097 60.0172 33.2097 60.5116C33.2097 61.0059 32.8089 61.4067 32.3146 61.4067H31.9903C31.8045 61.4067 31.6633 61.5739 31.6952 61.7569C31.9462 63.1998 32.2325 64.6479 32.5578 66.0964C32.5885 66.2331 32.71 66.33 32.8501 66.33H34.7762C36.7022 66.33 38.2816 67.8135 38.4342 69.7001C38.4476 69.8653 38.312 70.0001 38.1463 70.0001H14.7565C14.5908 70.0001 14.4552 69.8653 14.4686 69.7001C14.6212 67.8135 16.2007 66.33 18.1266 66.33H20.0007C20.1408 66.33 20.2623 66.2331 20.2929 66.0964C20.6183 64.6479 20.9046 63.1998 21.1556 61.7569C21.1875 61.5739 21.0463 61.4067 20.8605 61.4067H20.633C20.1386 61.4067 19.7378 61.0059 19.7378 60.5116C19.7378 60.0172 20.1386 59.6164 20.633 59.6164H21.2451C21.3935 59.6164 21.5197 59.5078 21.5414 59.361C22.4378 53.3176 22.7436 47.4147 22.7293 42.0118C22.7289 41.8467 22.5948 41.7136 22.4296 41.7136H22.1547C21.6604 41.7136 21.2596 41.3128 21.2596 40.8185C21.2596 40.3241 21.6604 39.9233 22.1547 39.9233H22.4026C22.5704 39.9233 22.7056 39.7848 22.7022 39.6171C22.5438 31.6334 21.7378 24.9329 21.2388 20.7837C21.2354 20.7559 21.2217 20.7305 21.2004 20.7123L15.2568 15.6564ZM22.1557 65.9646C22.1148 66.1522 22.2573 66.33 22.4493 66.33H25.2563C25.4219 66.33 25.5563 66.1957 25.5563 66.03V61.7067C25.5563 61.541 25.4219 61.4067 25.2563 61.4067H23.2851C23.1385 61.4067 23.0134 61.5127 22.9889 61.6573C22.7462 63.0888 22.4696 64.5261 22.1557 65.9646ZM27.257 66.03C27.257 66.1957 27.3913 66.33 27.557 66.33H30.4015C30.5935 66.33 30.736 66.1522 30.6951 65.9646C30.3811 64.5261 30.1046 63.0888 29.8619 61.6573C29.8374 61.5127 29.7123 61.4067 29.5657 61.4067H27.557C27.3913 61.4067 27.257 61.541 27.257 61.7067V66.03ZM23.6606 59.6164C23.4774 59.6164 23.337 59.4535 23.3633 59.2722C24.2338 53.2547 24.5325 47.3866 24.5192 42.0146C24.5188 41.8484 24.6533 41.7136 24.8195 41.7136H25.2563C25.4219 41.7136 25.5563 41.8479 25.5563 42.0136V59.3164C25.5563 59.4821 25.4219 59.6164 25.2563 59.6164H23.6606ZM27.557 59.6164C27.3913 59.6164 27.257 59.4821 27.257 59.3164V42.0136C27.257 41.8479 27.3913 41.7136 27.557 41.7136H28.0313C28.1975 41.7136 28.332 41.8484 28.3316 42.0146C28.3183 47.3866 28.617 53.2547 29.4875 59.2722C29.5138 59.4535 29.3734 59.6164 29.1902 59.6164H27.557Z" />
  <path
    d="M21.2037 44.2402C21.255 44.2297 21.3047 44.2649 21.3048 44.3173C21.3061 46.0181 21.0182 51.4748 20.9574 52.6064C20.9507 52.7326 20.8731 52.8354 20.7538 52.8766C19.2062 53.4114 8.83812 57.4494 8.28747 69.8164C8.283 69.9168 8.2004 69.9998 8.09982 69.9998C3.62641 69.9998 -0.0433663 66.301 1.32205 62.0411C3.65575 54.7603 9.41618 46.6624 21.2037 44.2402Z" />
  <path
    d="M31.5764 44.2425C31.5194 44.2308 31.4642 44.2705 31.4642 44.3287C31.4642 46.0423 31.7509 51.4774 31.8115 52.6064C31.8183 52.7326 31.8958 52.8354 32.0152 52.8766C33.5619 53.4111 43.9193 57.4451 44.4802 69.7965C44.4852 69.9079 44.5768 69.9998 44.6883 69.9998C49.1509 69.9998 52.8117 66.3102 51.4525 62.0596C49.1235 54.7763 43.3664 46.6696 31.5764 44.2425Z" />
</svg>