<svg width="234" height="55" viewBox="0 0 234 55" fill="none" xmlns="http://www.w3.org/2000/svg">
<path d="M17.335 0.172624C17.3009 -0.0575415 16.9689 -0.0575415 16.9349 0.172624L16.557 2.72322C16.5423 2.8224 16.4571 2.89585 16.3568 2.89585H15.0267C14.8817 2.89585 14.7838 3.0439 14.8406 3.17731L15.272 4.19106C15.3037 4.26568 15.377 4.31413 15.4581 4.31413H18.8118C18.8929 4.31413 18.9661 4.26568 18.9978 4.19106L19.4292 3.17731C19.486 3.0439 19.3881 2.89585 19.2431 2.89585H17.9129C17.8127 2.89585 17.7275 2.8224 17.7128 2.72322L17.335 0.172624Z" fill="#23407C"/>
<path d="M14.3068 7.42901C14.2258 7.53284 14.0688 7.53284 13.9878 7.42901L12.3898 5.38007C12.2862 5.24724 12.3809 5.05341 12.5493 5.05341L15.7453 5.05341C15.9137 5.05341 16.0084 5.24725 15.9048 5.38007L14.3068 7.42901Z" fill="#25407C"/>
<path d="M20.2209 7.42901C20.1399 7.53284 19.9829 7.53284 19.9019 7.42901L18.3039 5.38007C18.2003 5.24724 18.295 5.05341 18.4634 5.05341L21.6594 5.05341C21.8278 5.05341 21.9225 5.24725 21.8189 5.38007L20.2209 7.42901Z" fill="#25407C"/>
<path d="M11.3494 5.60525C11.2684 5.50129 11.1113 5.50129 11.0303 5.60525L9.42248 7.66904C9.31898 7.80186 9.41364 7.99557 9.58206 7.99557H12.7977C12.9661 7.99557 13.0607 7.80186 12.9572 7.66904L11.3494 5.60525Z" fill="#4DA8E3"/>
<path d="M17.2635 5.60525C17.1825 5.50129 17.0253 5.50129 16.9444 5.60525L15.3365 7.66904C15.233 7.80186 15.3277 7.99557 15.4961 7.99557H18.7117C18.8801 7.99557 18.9748 7.80186 18.8713 7.66904L17.2635 5.60525Z" fill="#4DA8E3"/>
<path d="M23.1785 5.60525C23.0975 5.50129 22.9404 5.50129 22.8594 5.60525L21.2516 7.66904C21.1481 7.80186 21.2427 7.99557 21.4111 7.99557H24.6267C24.7952 7.99557 24.8898 7.80186 24.7863 7.66904L23.1785 5.60525Z" fill="#4DA8E3"/>
<path d="M17.2907 14.3461C17.2209 14.5105 16.988 14.5105 16.9183 14.3461L14.7795 9.30282C14.7229 9.16946 14.8208 9.02161 14.9657 9.02161H19.2433C19.3882 9.02161 19.4861 9.16946 19.4295 9.30282L17.2907 14.3461Z" fill="#4DA8E3"/>
<path fill-rule="evenodd" clip-rule="evenodd" d="M9.58673 9.37793C9.44345 9.25603 9.52962 9.02161 9.71779 9.02161H13.5C13.5812 9.02161 13.6545 9.07015 13.6863 9.14485L14.8875 11.9763C14.8966 11.998 14.902 12.0205 14.9032 12.0439C14.944 12.8104 15.022 14.3216 15.022 14.3929L15.0219 14.3943C15.0218 14.3945 15.0218 14.3949 15.0216 14.3952C15.0216 14.3954 15.0213 14.3958 15.0212 14.3959C15.0208 14.3962 15.0207 14.3966 15.0207 14.397C15.3425 17.1919 15.7271 21.0667 15.8139 25.54C15.8161 25.6503 15.906 25.7392 16.0164 25.7392H16.3286C16.4403 25.7392 16.5309 25.6486 16.5309 25.5369V15.6841C16.5309 15.5014 16.7539 15.4124 16.8798 15.5448L16.9575 15.6267C17.0373 15.7106 17.1711 15.7106 17.2508 15.6267L17.3286 15.5448C17.4545 15.4124 17.6775 15.5014 17.6775 15.6841V25.5369C17.6775 25.6486 17.7681 25.7392 17.8798 25.7392H18.2173C18.3276 25.7392 18.4176 25.6503 18.4198 25.54C18.5065 21.0683 18.8909 17.1947 19.2126 14.4001C19.2129 14.3976 19.2116 14.3954 19.2116 14.3929C19.2116 14.3216 19.2897 12.8104 19.3304 12.0439C19.3317 12.0205 19.3371 11.998 19.3462 11.9763L20.5474 9.14485C20.5792 9.07015 20.6525 9.02161 20.7336 9.02161H24.5159C24.704 9.02161 24.7902 9.25603 24.6469 9.37793L20.6396 12.7867C20.6253 12.7989 20.6161 12.8161 20.6138 12.8348C20.2773 15.6324 19.7339 20.1499 19.627 25.5327C19.6248 25.6458 19.716 25.7392 19.8291 25.7392H20.0313C20.3646 25.7392 20.6348 26.0094 20.6348 26.3427C20.6348 26.676 20.3646 26.9462 20.0313 26.9462H19.8109C19.6995 26.9462 19.6091 27.0359 19.6088 27.1473C19.5992 30.79 19.8054 34.7699 20.4097 38.8445C20.4244 38.9434 20.5095 39.0167 20.6095 39.0167H21.0875C21.4207 39.0167 21.691 39.2869 21.691 39.6202C21.691 39.9536 21.4207 40.2237 21.0875 40.2237H20.8688C20.7435 40.2237 20.6483 40.3365 20.6699 40.4598C20.8391 41.4327 21.0321 42.409 21.2514 43.3857C21.2721 43.4778 21.3541 43.5431 21.4485 43.5431H22.7471C24.0457 43.5431 25.1105 44.5433 25.2134 45.8154C25.2225 45.9267 25.131 46.0176 25.0193 46.0176H9.24941C9.13769 46.0176 9.04627 45.9267 9.0553 45.8154C9.15819 44.5433 10.2231 43.5431 11.5216 43.5431H12.7852C12.8796 43.5431 12.9615 43.4778 12.9822 43.3857C13.2016 42.409 13.3946 41.4327 13.5638 40.4598C13.5853 40.3365 13.4901 40.2237 13.3649 40.2237H13.2115C12.8781 40.2237 12.6079 39.9536 12.6079 39.6202C12.6079 39.2869 12.8781 39.0167 13.2115 39.0167H13.6242C13.7242 39.0167 13.8093 38.9434 13.8239 38.8445C14.4283 34.7699 14.6345 30.79 14.6248 27.1473C14.6246 27.0359 14.5342 26.9462 14.4228 26.9462H14.2374C13.9042 26.9462 13.6339 26.676 13.6339 26.3427C13.6339 26.0094 13.9042 25.7392 14.2374 25.7392H14.4046C14.5177 25.7392 14.6089 25.6458 14.6066 25.5327C14.4998 20.1499 13.9564 15.6324 13.6199 12.8348C13.6176 12.8161 13.6084 12.7989 13.594 12.7867L9.58673 9.37793ZM14.2381 43.2968C14.2105 43.4232 14.3066 43.5431 14.4361 43.5431H16.3286C16.4403 43.5431 16.5309 43.4526 16.5309 43.3409V40.426C16.5309 40.3143 16.4403 40.2237 16.3286 40.2237H14.9996C14.9007 40.2237 14.8164 40.2952 14.7999 40.3927C14.6362 41.3578 14.4498 42.3269 14.2381 43.2968ZM17.6775 43.3409C17.6775 43.4526 17.7681 43.5431 17.8798 43.5431H19.7976C19.9271 43.5431 20.0231 43.4232 19.9956 43.2968C19.7839 42.3269 19.5974 41.3578 19.4338 40.3927C19.4173 40.2952 19.3329 40.2237 19.2341 40.2237H17.8798C17.7681 40.2237 17.6775 40.3143 17.6775 40.426V43.3409ZM15.2528 39.0167C15.1292 39.0167 15.0346 38.9068 15.0523 38.7846C15.6392 34.7275 15.8406 30.7711 15.8316 27.1492C15.8314 27.0371 15.9221 26.9462 16.0341 26.9462H16.3286C16.4403 26.9462 16.5309 27.0368 16.5309 27.1485V38.8145C16.5309 38.9261 16.4403 39.0167 16.3286 39.0167H15.2528ZM17.8798 39.0167C17.7681 39.0167 17.6775 38.9261 17.6775 38.8145V27.1485C17.6775 27.0368 17.7681 26.9462 17.8798 26.9462H18.1996C18.3116 26.9462 18.4023 27.0371 18.402 27.1492C18.3931 30.7711 18.5945 34.7275 19.1814 38.7846C19.1991 38.9068 19.1044 39.0167 18.9809 39.0167H17.8798Z" fill="#223F7C"/>
<path d="M13.6051 28.6481C13.6353 28.6419 13.6645 28.6623 13.6646 28.6932C13.6665 29.8299 13.4714 33.5257 13.4304 34.2906C13.4258 34.3757 13.3735 34.445 13.2931 34.4727C12.2491 34.8335 5.25063 37.5592 4.88736 45.9094C4.88473 45.9686 4.83605 46.0176 4.77672 46.0176C1.75223 46.0176 -0.728973 43.5167 0.196397 40.6373C1.7734 35.7304 5.65962 30.2775 13.6051 28.6481Z" fill="#4DA8E3"/>
<path d="M20.5737 28.6481C20.5435 28.6419 20.5142 28.6623 20.5142 28.6932C20.5123 29.8299 20.7073 33.5257 20.7483 34.2906C20.7529 34.3757 20.8052 34.445 20.8857 34.4727C21.9297 34.8335 28.9278 37.5592 29.2911 45.9094C29.2937 45.9686 29.3424 46.0176 29.4018 46.0176C32.4262 46.0176 34.9075 43.5167 33.9821 40.6373C32.4052 35.7304 28.5191 30.2775 20.5737 28.6481Z" fill="#4DA8E3"/>
<path d="M64.6064 46H60.7387L54.27 36.2064V46H50.4023V30.1222H54.27L60.7387 39.961V30.1222H64.6064V46ZM75.8464 41.0976C75.8464 41.4481 75.8238 41.7648 75.7786 42.0475H68.637C68.6935 42.7939 68.9706 43.3933 69.4682 43.8456C69.9658 44.298 70.5765 44.5242 71.3002 44.5242C72.3407 44.5242 73.0757 44.0888 73.5055 43.218H75.592C75.3093 44.0775 74.7947 44.7843 74.0483 45.3384C73.3132 45.8813 72.3972 46.1527 71.3002 46.1527C70.4068 46.1527 69.6039 45.9548 68.8914 45.559C68.1903 45.1518 67.6361 44.5864 67.229 43.8626C66.8332 43.1275 66.6353 42.2793 66.6353 41.3181C66.6353 40.3568 66.8275 39.5143 67.212 38.7905C67.6079 38.0554 68.1563 37.49 68.8575 37.0942C69.57 36.6984 70.3842 36.5005 71.3002 36.5005C72.1823 36.5005 72.9683 36.6927 73.6582 37.0772C74.348 37.4617 74.8852 38.0046 75.2697 38.7057C75.6542 39.3956 75.8464 40.1928 75.8464 41.0976ZM73.8278 40.4869C73.8165 39.7744 73.562 39.2033 73.0644 38.7736C72.5668 38.3438 71.9505 38.129 71.2154 38.129C70.5482 38.129 69.9771 38.3438 69.5021 38.7736C69.0271 39.192 68.7444 39.7631 68.6539 40.4869H73.8278ZM90.3025 36.6531L87.4017 46H85.3661L83.4832 39.0959L81.6002 46H79.5646L76.6469 36.6531H78.6147L80.5655 44.1679L82.5502 36.6531H84.5688L86.4687 44.134L88.4026 36.6531H90.3025ZM118.133 30.1222L113.994 46H109.312L106.779 35.5505L104.155 46H99.4734L95.4474 30.1222H99.5865L101.871 41.68L104.698 30.1222H108.95L111.664 41.68L113.971 30.1222H118.133ZM123.997 46.1527C123.115 46.1527 122.318 45.9548 121.605 45.559C120.893 45.1518 120.333 44.5864 119.926 43.8626C119.519 43.1275 119.315 42.2793 119.315 41.3181C119.315 40.3681 119.524 39.5256 119.943 38.7905C120.361 38.0554 120.932 37.49 121.656 37.0942C122.38 36.6984 123.188 36.5005 124.082 36.5005C124.975 36.5005 125.784 36.6984 126.508 37.0942C127.231 37.49 127.803 38.0554 128.221 38.7905C128.639 39.5256 128.849 40.3681 128.849 41.3181C128.849 42.268 128.634 43.1106 128.204 43.8456C127.774 44.5807 127.186 45.1518 126.44 45.559C125.705 45.9548 124.89 46.1527 123.997 46.1527ZM123.997 44.4733C124.495 44.4733 124.958 44.3545 125.388 44.1171C125.829 43.8796 126.185 43.5233 126.457 43.0484C126.728 42.5734 126.864 41.9966 126.864 41.3181C126.864 40.6395 126.734 40.0684 126.474 39.6048C126.214 39.1298 125.869 38.7736 125.439 38.5361C125.009 38.2986 124.546 38.1798 124.048 38.1798C123.55 38.1798 123.087 38.2986 122.657 38.5361C122.239 38.7736 121.905 39.1298 121.656 39.6048C121.407 40.0684 121.283 40.6395 121.283 41.3181C121.283 42.3246 121.537 43.1049 122.046 43.659C122.566 44.2019 123.217 44.4733 123.997 44.4733ZM132.694 38.0102C132.977 37.5352 133.35 37.1677 133.814 36.9076C134.289 36.6362 134.849 36.5005 135.493 36.5005V38.5022H135.001C134.243 38.5022 133.667 38.6944 133.271 39.0789C132.886 39.4634 132.694 40.1306 132.694 41.0806V46H130.76V36.6531H132.694V38.0102ZM139.205 33.447V46H137.271V33.447H139.205ZM141.099 41.2842C141.099 40.3455 141.291 39.5143 141.676 38.7905C142.071 38.0668 142.603 37.507 143.27 37.1111C143.949 36.704 144.701 36.5005 145.526 36.5005C146.137 36.5005 146.736 36.6362 147.324 36.9076C147.924 37.1677 148.399 37.5183 148.749 37.9593V33.447H150.7V46H148.749V44.592C148.433 45.0444 147.992 45.4176 147.426 45.7116C146.872 46.0057 146.233 46.1527 145.509 46.1527C144.695 46.1527 143.949 45.9491 143.27 45.542C142.603 45.1236 142.071 44.5468 141.676 43.8117C141.291 43.0653 141.099 42.2228 141.099 41.2842ZM148.749 41.3181C148.749 40.6735 148.614 40.1137 148.342 39.6387C148.082 39.1637 147.737 38.8018 147.308 38.553C146.878 38.3042 146.414 38.1798 145.917 38.1798C145.419 38.1798 144.955 38.3042 144.526 38.553C144.096 38.7905 143.745 39.1468 143.474 39.6217C143.214 40.0854 143.084 40.6395 143.084 41.2842C143.084 41.9288 143.214 42.4942 143.474 42.9805C143.745 43.4668 144.096 43.84 144.526 44.1001C144.967 44.3489 145.43 44.4733 145.917 44.4733C146.414 44.4733 146.878 44.3489 147.308 44.1001C147.737 43.8513 148.082 43.4894 148.342 43.0144C148.614 42.5281 148.749 41.9627 148.749 41.3181ZM169.199 30.1222V33.2209H164.992V46H161.124V33.2209H156.917V30.1222H169.199ZM179.576 41.0976C179.576 41.4481 179.554 41.7648 179.509 42.0475H172.367C172.424 42.7939 172.701 43.3933 173.198 43.8456C173.696 44.298 174.306 44.5242 175.03 44.5242C176.071 44.5242 176.806 44.0888 177.235 43.218H179.322C179.039 44.0775 178.525 44.7843 177.778 45.3384C177.043 45.8813 176.127 46.1527 175.03 46.1527C174.137 46.1527 173.334 45.9548 172.621 45.559C171.92 45.1518 171.366 44.5864 170.959 43.8626C170.563 43.1275 170.365 42.2793 170.365 41.3181C170.365 40.3568 170.558 39.5143 170.942 38.7905C171.338 38.0554 171.886 37.49 172.587 37.0942C173.3 36.6984 174.114 36.5005 175.03 36.5005C175.912 36.5005 176.698 36.6927 177.388 37.0772C178.078 37.4617 178.615 38.0046 179 38.7057C179.384 39.3956 179.576 40.1928 179.576 41.0976ZM177.558 40.4869C177.546 39.7744 177.292 39.2033 176.794 38.7736C176.297 38.3438 175.68 38.129 174.945 38.129C174.278 38.129 173.707 38.3438 173.232 38.7736C172.757 39.192 172.474 39.7631 172.384 40.4869H177.558ZM183.413 33.447V46H181.48V33.447H183.413ZM194.519 41.0976C194.519 41.4481 194.496 41.7648 194.451 42.0475H187.309C187.366 42.7939 187.643 43.3933 188.141 43.8456C188.638 44.298 189.249 44.5242 189.973 44.5242C191.013 44.5242 191.748 44.0888 192.178 43.218H194.264C193.982 44.0775 193.467 44.7843 192.721 45.3384C191.986 45.8813 191.07 46.1527 189.973 46.1527C189.079 46.1527 188.276 45.9548 187.564 45.559C186.863 45.1518 186.309 44.5864 185.901 43.8626C185.506 43.1275 185.308 42.2793 185.308 41.3181C185.308 40.3568 185.5 39.5143 185.884 38.7905C186.28 38.0554 186.829 37.49 187.53 37.0942C188.242 36.6984 189.057 36.5005 189.973 36.5005C190.855 36.5005 191.641 36.6927 192.331 37.0772C193.02 37.4617 193.558 38.0046 193.942 38.7057C194.327 39.3956 194.519 40.1928 194.519 41.0976ZM192.5 40.4869C192.489 39.7744 192.234 39.2033 191.737 38.7736C191.239 38.3438 190.623 38.129 189.888 38.129C189.221 38.129 188.649 38.3438 188.175 38.7736C187.7 39.192 187.417 39.7631 187.326 40.4869H192.5ZM195.777 41.3181C195.777 40.3568 195.97 39.5143 196.354 38.7905C196.75 38.0554 197.293 37.49 197.983 37.0942C198.672 36.6984 199.464 36.5005 200.357 36.5005C201.488 36.5005 202.421 36.7719 203.156 37.3147C203.903 37.8462 204.406 38.6096 204.666 39.6048H202.58C202.41 39.1411 202.139 38.7792 201.765 38.5191C201.392 38.259 200.923 38.129 200.357 38.129C199.566 38.129 198.933 38.4117 198.458 38.9771C197.994 39.5313 197.762 40.3116 197.762 41.3181C197.762 42.3246 197.994 43.1106 198.458 43.676C198.933 44.2415 199.566 44.5242 200.357 44.5242C201.477 44.5242 202.218 44.0322 202.58 43.0484H204.666C204.395 43.9983 203.886 44.756 203.139 45.3215C202.393 45.8756 201.466 46.1527 200.357 46.1527C199.464 46.1527 198.672 45.9548 197.983 45.559C197.293 45.1518 196.75 44.5864 196.354 43.8626C195.97 43.1275 195.777 42.2793 195.777 41.3181ZM210.648 46.1527C209.766 46.1527 208.968 45.9548 208.256 45.559C207.543 45.1518 206.984 44.5864 206.576 43.8626C206.169 43.1275 205.966 42.2793 205.966 41.3181C205.966 40.3681 206.175 39.5256 206.593 38.7905C207.012 38.0554 207.583 37.49 208.307 37.0942C209.03 36.6984 209.839 36.5005 210.732 36.5005C211.626 36.5005 212.434 36.6984 213.158 37.0942C213.882 37.49 214.453 38.0554 214.872 38.7905C215.29 39.5256 215.499 40.3681 215.499 41.3181C215.499 42.268 215.284 43.1106 214.855 43.8456C214.425 44.5807 213.837 45.1518 213.09 45.559C212.355 45.9548 211.541 46.1527 210.648 46.1527ZM210.648 44.4733C211.145 44.4733 211.609 44.3545 212.039 44.1171C212.48 43.8796 212.836 43.5233 213.107 43.0484C213.379 42.5734 213.514 41.9966 213.514 41.3181C213.514 40.6395 213.384 40.0684 213.124 39.6048C212.864 39.1298 212.519 38.7736 212.09 38.5361C211.66 38.2986 211.196 38.1798 210.699 38.1798C210.201 38.1798 209.737 38.2986 209.308 38.5361C208.889 38.7736 208.555 39.1298 208.307 39.6048C208.058 40.0684 207.933 40.6395 207.933 41.3181C207.933 42.3246 208.188 43.1049 208.697 43.659C209.217 44.2019 209.867 44.4733 210.648 44.4733ZM228.726 36.5005C229.461 36.5005 230.117 36.6531 230.693 36.9585C231.281 37.2638 231.739 37.7162 232.067 38.3156C232.407 38.9149 232.576 39.6387 232.576 40.4869V46H230.659V40.7753C230.659 39.9384 230.45 39.2994 230.032 38.8584C229.613 38.406 229.042 38.1798 228.318 38.1798C227.595 38.1798 227.018 38.406 226.588 38.8584C226.17 39.2994 225.96 39.9384 225.96 40.7753V46H224.044V40.7753C224.044 39.9384 223.834 39.2994 223.416 38.8584C222.998 38.406 222.426 38.1798 221.703 38.1798C220.979 38.1798 220.402 38.406 219.972 38.8584C219.554 39.2994 219.345 39.9384 219.345 40.7753V46H217.411V36.6531H219.345V37.7218C219.661 37.3373 220.063 37.0376 220.549 36.8228C221.035 36.6079 221.556 36.5005 222.11 36.5005C222.856 36.5005 223.523 36.6588 224.111 36.9754C224.7 37.2921 225.152 37.7501 225.469 38.3495C225.751 37.784 226.192 37.3373 226.792 37.0094C227.391 36.6701 228.036 36.5005 228.726 36.5005Z" fill="#24407D"/>
</svg>
