<svg width="24" height="24" viewBox="0 0 24 24" fill="none" xmlns="http://www.w3.org/2000/svg">
<path fill-rule="evenodd" clip-rule="evenodd" d="M11.2297 0.0317994C8.38082 0.326094 5.88998 2.21606 4.85834 4.86615C3.93103 7.24824 4.26581 9.98993 5.7338 12.036C5.88548 12.2474 6.00957 12.4389 6.00957 12.4615C6.00957 12.4841 5.81962 12.6194 5.5874 12.7621C2.23056 14.8245 0.0216846 18.6743 0.00106199 22.4983C-0.00318536 23.2828 -0.00118957 23.2976 0.136363 23.5061C0.598147 24.2062 1.64074 24.1511 2.02259 23.4065C2.0971 23.2612 2.13164 23.0247 2.17222 22.3818C2.25732 21.0324 2.54461 19.8847 3.08156 18.7488C3.97944 16.8492 5.48193 15.2768 7.34723 14.2845L7.78849 14.0497L8.37028 14.3553C9.30592 14.8466 9.99435 15.0712 10.9733 15.2046C12.5749 15.4228 14.061 15.149 15.5658 14.3586L16.1581 14.0476L16.5209 14.2362C18.3913 15.2083 19.8856 16.7433 20.7999 18.6316C21.4162 19.9046 21.6771 20.926 21.7702 22.4298C21.8073 23.0302 21.8411 23.253 21.9176 23.4021C22.3016 24.1509 23.3424 24.2084 23.8061 23.5064C23.9431 23.2988 23.9456 23.2811 23.9414 22.5241C23.9277 20.0486 22.9709 17.4453 21.3256 15.4078C20.5394 14.434 19.3392 13.3675 18.3878 12.7972C18.208 12.6893 18.0218 12.5751 17.9742 12.5433C17.8969 12.4916 17.9194 12.4412 18.1868 12.067C19.5994 10.0909 19.9813 7.55247 19.2134 5.24421C18.816 4.04984 18.272 3.17755 17.3476 2.2527C16.4083 1.31281 15.4323 0.716799 14.222 0.343851C13.2906 0.056823 12.1445 -0.0626656 11.2297 0.0317994ZM13.1116 2.30172C14.138 2.52719 15.0167 3.00883 15.7831 3.76593C16.9332 4.90207 17.4737 6.26608 17.4055 7.85976C17.3441 9.29434 16.7895 10.5405 15.7754 11.5226C14.6944 12.5696 13.4486 13.0794 11.9712 13.0794C10.4564 13.0794 9.13106 12.518 8.07399 11.4287C7.38039 10.7139 6.95944 9.97734 6.68853 9.0045C6.55953 8.54102 6.54822 8.42778 6.55139 7.62948C6.55446 6.8557 6.56991 6.70341 6.69099 6.25145C7.24309 4.19051 8.91854 2.65584 11.0501 2.25864C11.557 2.16417 12.5832 2.18561 13.1116 2.30172Z" fill="#7EB0C1"/>
</svg>
