<svg viewBox="0 0 24 24" fill="none" xmlns="http://www.w3.org/2000/svg">
  <path fill-rule="evenodd" clip-rule="evenodd"
    d="M2.9619 0.701129C3.9139 -0.23818 5.44556 -0.233039 6.39123 0.712637L10.0674 4.38882C11.0176 5.339 11.0176 6.87955 10.0674 7.82973L8.49396 9.40319C8.44388 9.45327 8.41826 9.50706 8.40922 9.54715C8.40109 9.58321 8.40641 9.60327 8.41248 9.61661C8.98845 10.882 10.0366 12.1258 11.2544 13.2362C12.463 14.3383 13.7824 15.2581 14.8267 15.8853C14.9087 15.9346 15.0489 15.9375 15.1653 15.8211L16.5872 14.3992C17.5374 13.449 19.0779 13.449 20.0281 14.3992L23.2756 17.6467C24.2258 18.5969 24.2258 20.1374 23.2756 21.0876L21.5076 22.8557C20.6602 23.7031 19.4433 24.1557 18.2037 23.9513C5.2305 21.8113 0.798265 11.6389 0.0282695 5.65936C-0.118117 4.52257 0.316716 3.45118 1.03844 2.68134L2.06845 1.58267L2.9619 0.701129ZM4.91655 2.18732C4.78146 2.05222 4.56265 2.05148 4.42665 2.18567L3.56212 3.03867L2.5599 4.10771C2.19992 4.49168 2.04109 4.96118 2.0967 5.393C2.7941 10.8088 6.78428 19.9539 18.5432 21.8935C19.0632 21.9793 19.6192 21.7947 20.0329 21.381L21.801 19.6129C21.9367 19.4772 21.9367 19.2571 21.801 19.1214L18.5534 15.8738C18.4177 15.7381 18.1976 15.7381 18.0619 15.8738L16.6399 17.2958C15.8959 18.0398 14.7139 18.2503 13.7528 17.6731C12.6148 16.9896 11.1791 15.9899 9.8492 14.7773C8.52845 13.573 7.25452 12.1068 6.51434 10.4806C6.09044 9.54924 6.39783 8.54996 7.01928 7.92851L8.59273 6.35506C8.72847 6.21932 8.72847 5.99924 8.59274 5.8635L4.91655 2.18732Z" />
</svg>