<svg xmlns="http://www.w3.org/2000/svg"
     viewBox="0 0 512 512">
    <g>
        <path fill="#f34235"
              fill-rule="evenodd"
              d="M256 0C114.8 0 0 114.8 0 256s114.8 256 256 256 256-114.8 256-256S397.2 0 256 0z"
              clip-rule="evenodd"
              opacity="1"
              data-original="#f34235"
              class="" />
        <path fill="#ffffff"
              d="M157 223.5v173.1c0 5.2 4.2 9.4 9.4 9.4h179.3c5.2 0 9.4-4.2 9.4-9.4V204.8h-198v18.7zm195.6-37.4H159.4c-8.9 0-16.1-7.2-16.1-16.1s7.2-16.1 16.1-16.1h61.7v-13c0-19.2 15.6-34.9 34.9-34.9 19.2 0 34.9 15.6 34.9 34.9v13h61.7c8.9 0 16.1 7.2 16.1 16.1s-7.2 16.1-16.1 16.1zm-112.7-32.2h32.2v-13c0-8.9-7.2-16.1-16.1-16.1s-16.1 7.2-16.1 16.1zm68.5 102.8v97.5c0 5.2-4.2 9.4-9.4 9.4s-9.4-4.2-9.4-9.4v-97.5c0-5.2 4.2-9.4 9.4-9.4s9.4 4.2 9.4 9.4zm-43 0v97.5c0 5.2-4.2 9.4-9.4 9.4s-9.4-4.2-9.4-9.4v-97.5c0-5.2 4.2-9.4 9.4-9.4s9.4 4.2 9.4 9.4zm-43.1 0v97.5c0 5.2-4.2 9.4-9.4 9.4s-9.4-4.2-9.4-9.4v-97.5c0-5.2 4.2-9.4 9.4-9.4s9.4 4.2 9.4 9.4z"
              opacity="1"
              data-original="#ffffff"
              class="" />
    </g>
</svg>