<svg width="17" height="18" viewBox="0 0 17 18" fill="none" xmlns="http://www.w3.org/2000/svg">
  <path fill-rule="evenodd" clip-rule="evenodd"
    d="M6.73223 0.732233C7.20107 0.263392 7.83696 0 8.5 0H14.5C15.163 0 15.7989 0.263392 16.2678 0.732233C16.7366 1.20107 17 1.83696 17 2.5V8.5C17 9.16304 16.7366 9.79893 16.2678 10.2678C15.7989 10.7366 15.163 11 14.5 11H8.5C7.83696 11 7.20107 10.7366 6.73223 10.2678C6.26339 9.79893 6 9.16304 6 8.5V2.5C6 1.83696 6.26339 1.20107 6.73223 0.732233ZM8.5 1C8.10218 1 7.72064 1.15804 7.43934 1.43934C7.15804 1.72064 7 2.10218 7 2.5V8.5C7 8.89782 7.15804 9.27936 7.43934 9.56066C7.72064 9.84196 8.10218 10 8.5 10H14.5C14.8978 10 15.2794 9.84196 15.5607 9.56066C15.842 9.27936 16 8.89782 16 8.5V2.5C16 2.10218 15.842 1.72064 15.5607 1.43934C15.2794 1.15804 14.8978 1 14.5 1H8.5Z" />
  <path fill-rule="evenodd" clip-rule="evenodd"
    d="M0.732233 6.73523C1.20107 6.26639 1.83696 6.003 2.5 6.003H4.5C4.77614 6.003 5 6.22686 5 6.503C5 6.77914 4.77614 7.003 4.5 7.003H2.5C2.10217 7.003 1.72064 7.16104 1.43934 7.44234C1.15804 7.72364 1 8.10518 1 8.503V14.503C1 14.9008 1.15804 15.2824 1.43934 15.5637C1.72064 15.845 2.10218 16.003 2.5 16.003L2.50217 16.003L8.50217 15.993C8.8996 15.9924 9.28064 15.8341 9.56146 15.5529C9.84227 15.2716 10 14.8904 10 14.493V12.5C10 12.2239 10.2239 12 10.5 12C10.7761 12 11 12.2239 11 12.5V14.493C11 15.1554 10.7371 15.7907 10.2691 16.2594C9.80108 16.7282 9.16619 16.992 8.50383 16.993V16.993L2.50383 17.003L2.5 17.003C1.83696 17.003 1.20107 16.7396 0.732233 16.2708C0.263392 15.8019 0 15.166 0 14.503V8.503C0 7.83996 0.263392 7.20407 0.732233 6.73523ZM2 10.503C2 10.2269 2.22386 10.003 2.5 10.003H5.5C5.77614 10.003 6 10.2269 6 10.503C6 10.7791 5.77614 11.003 5.5 11.003H2.5C2.22386 11.003 2 10.7791 2 10.503Z" />
  <path fill-rule="evenodd" clip-rule="evenodd"
    d="M7.35355 11.6464C7.54882 11.8417 7.54882 12.1583 7.35355 12.3536L6.35355 13.3536C6.14122 13.5652 5.80521 13.7996 5.38232 14.0535C4.95071 14.3125 4.39679 14.6106 3.72361 14.9472C3.47662 15.0707 3.17628 14.9706 3.05279 14.7236C2.92929 14.4766 3.0294 14.1763 3.27639 14.0528C3.93721 13.7224 4.46629 13.437 4.86768 13.196C5.27759 12.95 5.52506 12.7674 5.64679 12.6461V12.6461L6.64645 11.6464C6.84171 11.4512 7.15829 11.4512 7.35355 11.6464Z" />
  <path fill-rule="evenodd" clip-rule="evenodd"
    d="M11.5 2C11.6894 2 11.8625 2.107 11.9472 2.27639L13.9427 6.26738C13.946 6.27354 13.9491 6.27979 13.9521 6.2861L14.9472 8.27639C15.0707 8.52338 14.9706 8.82372 14.7236 8.94721C14.4766 9.07071 14.1763 8.9706 14.0528 8.72361L13.191 7H9.80902L8.94721 8.72361C8.82372 8.9706 8.52338 9.07071 8.27639 8.94721C8.0294 8.82372 7.92929 8.52338 8.05279 8.27639L9.04794 6.28608C9.05093 6.27978 9.05404 6.27355 9.05729 6.26739L11.0528 2.27639C11.1375 2.107 11.3106 2 11.5 2ZM10.309 6H12.691L11.5 3.61803L10.309 6ZM3.36231 10.0223C3.62778 9.94629 3.90463 10.0998 3.98067 10.3653C4.29794 11.4729 4.75319 12.1923 5.29981 12.6019C5.9351 13.0779 6.74156 13.5618 7.72361 14.0528C7.9706 14.1763 8.07071 14.4766 7.94721 14.7236C7.82372 14.9706 7.52338 15.0707 7.27639 14.9472C6.25844 14.4382 5.3969 13.9241 4.70019 13.4021C3.91481 12.8137 3.37006 11.8651 3.01933 10.6407C2.94329 10.3752 3.09685 10.0984 3.36231 10.0223Z" />
</svg>