<svg width="32" height="32" viewBox="0 0 32 32" fill="none" xmlns="http://www.w3.org/2000/svg">
<path fill-rule="evenodd" clip-rule="evenodd" d="M16 32C24.8365 32 32 24.8364 32 16C32 7.16357 24.8365 0 16 0C7.16345 0 0 7.16357 0 16C0 24.8364 7.16345 32 16 32ZM7.15598 8.54639C7.80975 8.29053 9.81534 8.11426 12.9636 8.03613C17.4914 7.92383 22.3997 8.08008 24.1557 8.39258C24.7527 8.49854 25.1697 8.67236 25.5596 8.97705C26.0565 9.36572 26.4324 9.98193 26.5942 10.6733C26.8973 11.9678 27.0659 14.897 26.9758 17.3037C26.8785 19.9033 26.7004 21.2915 26.3712 22.0166C26.0137 22.8047 25.3109 23.3882 24.4931 23.5771C23.3868 23.832 21.1963 23.9556 17.1161 23.9932C11.9706 24.04 8.23352 23.8447 7.20642 23.4741C6.32159 23.1553 5.64444 22.3672 5.4158 21.3906C4.8898 19.1431 4.85629 13.5874 5.35272 10.9419C5.57904 9.73633 6.1897 8.9248 7.15598 8.54639ZM19.4726 15.9736C19.4424 15.9448 18.1819 15.1821 16.6714 14.2788C15.1609 13.3755 13.8976 12.6255 13.8642 12.6123C13.8121 12.5918 13.8033 13.0811 13.8033 16.0205V19.4526L13.9432 19.3682L16.8052 17.6548C18.9359 16.3799 19.5154 16.0146 19.4726 15.9736Z" fill="#7EB0C1"/>
</svg>
